<svg width="53" height="53" viewBox="0 0 53 53" fill="none" xmlns="http://www.w3.org/2000/svg">
<g clip-path="url(#clip0)">
<path d="M26.4 0C31.7 5.3 37.1 10.7 42.5 16.1C40.6 18 38.6 19.9 36.5 21.9C33.2 18.6 29.9 15.2 26.4 11.7C22.9 15.3 19.5 18.7 16.2 22.1C14 20 12.1 18 10.2 16.2C15.6 10.8 21 5.4 26.4 0Z" fill="#F2BA32"/>
<path d="M42.5 36.7C37.1 42.1 31.7 47.5 26.4 52.8C21 47.5 15.5 42 10.1 36.6C12 34.7 13.9 32.8 15.9 30.9C19.2 34.2 22.6 37.6 26 41C29.6 37.4 33 34 36.4 30.6C38.6 32.8 40.6 34.8 42.5 36.7Z" fill="#F2BA32"/>
<path d="M26.2 32.3C24.3 30.4 22.3 28.4 20.5 26.6C22.5 24.6 24.5 22.6 26.4 20.8C28.2 22.6 30.2 24.6 32.1 26.5C30.2 28.3 28.2 30.3 26.2 32.3Z" fill="#F2BA32"/>
<path d="M47.1 20.7C48.9 22.5 50.9 24.5 52.8 26.4C50.9 28.3 48.9 30.3 47 32.2C45.2 30.4 43.2 28.4 41.3 26.5C43.2 24.6 45.1 22.7 47.1 20.7Z" fill="#F2BA32"/>
<path d="M11.4 26.5C9.6 28.3 7.6 30.3 5.7 32.2C3.8 30.3 1.8 28.4 0 26.6C1.9 24.7 3.9 22.7 5.7 20.9C7.4 22.6 9.4 24.5 11.4 26.5Z" fill="#F2BA32"/>
</g>
<defs>
<clipPath id="clip0">
<rect width="52.8" height="52.8" fill="white"/>
</clipPath>
</defs>
</svg>
