<svg width="37" height="37" viewBox="0 0 37 37" fill="none" xmlns="http://www.w3.org/2000/svg">
<g clip-path="url(#clip0)">
<path d="M35.8119 0C35.8119 0.171296 35.8119 0.171296 35.6422 0.342593C31.7385 6.85185 26.8165 12.5046 20.8761 17.1296C16.633 20.3843 12.0505 22.9537 6.95872 24.4954C4.75229 25.1806 2.54587 25.5231 0.33945 25.6944C0 25.6944 0 25.6944 0 25.5231C0.509174 18.6713 3.05505 13.0185 7.97706 8.39352C9.84404 6.68056 12.0505 5.48148 14.4266 4.4537C17.4817 3.08333 20.7064 2.22685 23.9312 1.54167C25.7982 1.19907 27.8349 0.856481 29.8716 0.513889C31.5688 0.342593 33.2661 0.171296 34.9633 0C35.133 0 35.4725 0 35.8119 0Z" fill="#799A43"/>
<path d="M1.01834 31.5185C3.56421 31.3472 6.11008 30.8333 8.48623 29.8056C12.2202 28.4352 15.6147 26.3796 18.8394 23.8102C23.2523 20.213 26.9862 16.1019 30.211 11.3056C31.9082 8.73611 33.4358 6.16667 34.7936 3.42593C35.3027 2.39815 35.8119 1.19908 36.1514 1.11759e-06V-0.171295C36.3211 -0.171295 36.3211 1.11759e-06 36.3211 0.171297C36.4908 1.19908 36.6605 2.39815 36.8303 3.42593C37 4.7963 37 6.33796 37 7.70833C36.8303 13.1898 35.6422 18.5 33.4358 23.4676C32.4174 25.8657 31.0596 28.0926 29.3624 29.9769C26.6468 33.2315 23.2523 35.287 19.3486 36.1435C17.6514 36.4861 15.9541 36.6574 14.2569 36.6574C11.0321 36.4861 7.97706 35.9722 5.09174 34.4306C3.73394 33.7454 2.37614 32.7176 1.35779 31.5185C1.18807 31.6898 1.18807 31.6898 1.01834 31.5185C1.18807 31.5185 1.18807 31.5185 1.01834 31.5185Z" fill="#9FCA5A"/>
</g>
<defs>
<clipPath id="clip0">
<rect width="37" height="37" fill="white"/>
</clipPath>
</defs>
</svg>
