<svg width="18" height="27" viewBox="0 0 18 27" fill="none" xmlns="http://www.w3.org/2000/svg">
    <path d="M1.14823 20.9161L1.42023 21.5961L2.10023 22.9561C1.76023 21.7321 1.28423 20.5081 0.808234 19.3521L1.14823 20.9161ZM0.808234 19.2841L2.30423 23.1601L2.78023 23.7721L0.740234 18.5361L0.808234 19.2161" fill="#FFB11A"/>
    <path fill-rule="evenodd" clip-rule="evenodd" d="M0.740234 18.4678C1.55623 20.3038 2.30423 22.1398 2.91623 23.9078L3.32423 24.3838C2.54305 22.1993 1.68113 20.0445 0.740234 17.9238V18.4678Z" fill="#FFB11A"/>
    <path fill-rule="evenodd" clip-rule="evenodd" d="M0.740234 17.8559C1.76023 20.0319 2.64423 22.2759 3.46023 24.5199L3.86823 24.8599C2.95307 22.3249 1.93217 19.8294 0.808234 17.3799V17.8559" fill="#FFB11A"/>
    <path fill-rule="evenodd" clip-rule="evenodd" d="M0.740234 17.3802C1.96423 19.8962 3.05223 22.4122 4.07223 24.9962L4.41223 25.2682C3.32423 22.4122 2.10023 19.6922 0.740234 16.9722V17.3802Z" fill="#FFB11A"/>
    <path fill-rule="evenodd" clip-rule="evenodd" d="M0.808105 16.972C2.30411 19.828 3.52811 22.684 4.61611 25.404L4.95611 25.54C3.73967 22.4848 2.37812 19.4894 0.876106 16.564V16.972" fill="#FFB11A"/>
    <path fill-rule="evenodd" clip-rule="evenodd" d="M0.876465 16.5641C2.44046 19.5561 3.86847 22.6161 5.16047 25.6761L5.43246 25.8801C4.14046 22.4801 2.64446 19.3521 0.944465 16.2241V16.5641" fill="#FFB11A"/>
    <path fill-rule="evenodd" clip-rule="evenodd" d="M0.944336 16.2243C2.71234 19.3523 4.34434 22.6163 5.70434 25.9483L5.97634 26.0843C4.54834 22.6163 2.84834 19.2163 1.08034 15.8843L0.944336 16.2243" fill="#FFB11A"/>
    <path fill-rule="evenodd" clip-rule="evenodd" d="M1.08008 15.8838C2.98408 19.2838 4.68408 22.6838 6.24808 26.1518L6.52008 26.2878C4.82008 22.4798 3.05208 18.8758 1.08008 15.6118V15.8838" fill="#FFB11A"/>
    <path fill-rule="evenodd" clip-rule="evenodd" d="M1.14844 15.612C3.18844 19.012 5.09244 22.684 6.79244 26.356L7.06444 26.424C5.22844 22.48 3.25644 18.74 1.21644 15.272L1.14844 15.544" fill="#FFB11A"/>
    <path fill-rule="evenodd" clip-rule="evenodd" d="M7.33631 26.492H7.60831C5.63631 22.412 3.52831 18.604 1.35231 15L1.21631 15.272C3.4392 18.9093 5.48167 22.6538 7.33631 26.492" fill="#FFB11A"/>
    <path d="M7.88041 26.5603H8.15241C6.10159 22.5535 3.85487 18.6502 1.42041 14.8643V15.0003C3.80041 18.7403 5.97641 22.6163 7.94841 26.5603H7.88041Z" fill="#FFB11A"/>
    <path d="M8.42441 26.6279H8.69641C6.51273 22.4806 4.12995 18.4413 1.55641 14.5239L1.42041 14.7959C3.93641 18.6039 6.31641 22.4799 8.42441 26.5599" fill="#FFB11A"/>
    <path d="M8.96815 26.6278H9.24015C6.91446 22.4114 4.3958 18.3044 1.69215 14.3198L1.55615 14.5238C4.48015 18.8758 6.99615 23.0238 9.03615 26.6278" fill="#FFB11A"/>
    <path d="M9.58038 26.6279H9.78438C7.26838 22.3439 4.61638 18.1279 1.76038 14.0479L1.69238 14.3199C4.41238 18.2639 7.13238 22.4119 9.51238 26.6279" fill="#FFB11A"/>
    <path fill-rule="evenodd" clip-rule="evenodd" d="M10.2601 26.5602C7.66871 22.2106 4.90108 17.9684 1.96413 13.8442L1.82812 14.0482C4.75213 18.1282 7.54012 22.2762 10.1241 26.5602H10.3961" fill="#FFB11A"/>
    <path fill-rule="evenodd" clip-rule="evenodd" d="M10.872 26.4241C8.084 22.0721 5.092 17.7881 2.032 13.6401L1.896 13.8441C4.956 17.9241 7.88 22.1401 10.6 26.4921H10.872" fill="#FFB11A"/>
    <path fill-rule="evenodd" clip-rule="evenodd" d="M11.3482 26.288C8.42423 21.868 5.36423 17.584 2.16823 13.436L2.03223 13.64C5.63623 18.264 8.76423 22.752 11.1442 26.356L11.3482 26.288Z" fill="#FFB11A"/>
    <path fill-rule="evenodd" clip-rule="evenodd" d="M11.6205 26.1522H11.8925L11.7565 25.9482C8.69646 21.5962 5.56846 17.3802 2.23646 13.2322L2.16846 13.4362C5.43246 17.5842 8.62846 21.8682 11.6885 26.1522H11.6205ZM12.1645 25.9482H12.3685L12.1645 25.5402C8.90046 21.3242 5.77246 17.0402 2.44046 13.0962L2.30446 13.2322C5.70446 17.3802 8.96846 21.6642 12.1645 25.9482" fill="#FFB11A"/>
    <path fill-rule="evenodd" clip-rule="evenodd" d="M12.8444 25.608C9.51251 21.3191 6.08906 17.1021 2.57643 12.96L2.44043 13.096C5.90843 17.312 9.37643 21.528 12.6404 25.812C12.7764 25.812 12.8444 25.744 12.8444 25.676" fill="#FFB11A"/>
    <path d="M13.32 25.3359C9.87869 21.0604 6.36485 16.8438 2.78004 12.6879L2.64404 12.8919C6.24804 16.9719 9.78404 21.1879 13.252 25.4719L13.388 25.3359H13.32ZM13.864 24.9959C10.2433 20.8028 6.57104 16.6544 2.84804 12.5519L2.71204 12.6879C6.79204 17.1759 10.464 21.5279 13.592 25.1319C13.66 25.1319 13.728 25.1319 13.796 24.9959H13.864ZM14.272 24.6559L2.98404 12.4159L2.84804 12.5519C6.99604 16.9719 10.872 21.2559 14.068 24.7919L14.272 24.6559V24.6559ZM14.68 24.3159C10.8368 20.2716 6.98347 16.2369 3.12004 12.2119L2.98404 12.3479L14.544 24.4519C14.544 24.4519 14.544 24.3159 14.68 24.3159ZM15.02 23.9079L3.32404 12.0759L3.12004 12.2119L14.884 24.0439L15.02 23.9079V23.9079ZM15.428 23.4319C11.348 19.6239 7.40404 15.7479 3.46004 11.8719L3.32404 12.0079C7.67604 16.2919 11.756 20.3039 15.292 23.5679L15.428 23.4319ZM15.7 23.0239C11.62 19.2839 7.60804 15.5439 3.66404 11.7359L3.46004 11.8719C7.54004 15.6799 11.484 19.4879 15.7 23.1599L15.768 23.0239H15.7ZM16.108 22.5479L3.80004 11.5999L3.66404 11.7359C7.67604 15.4759 11.824 19.1479 15.904 22.6839L16.04 22.5479H16.108ZM16.312 22.0039C12.096 18.6039 8.01604 15.0679 4.00404 11.4639L3.80004 11.5999C7.88004 15.2039 11.96 18.7399 16.176 22.2079L16.312 22.0039" fill="#FFB11A"/>
    <path fill-rule="evenodd" clip-rule="evenodd" d="M16.3804 21.7321L16.5164 21.5281L16.2444 21.2561C12.1644 18.0601 8.08439 14.7281 4.14039 11.3281L4.00439 11.4641C8.08439 15.0001 12.1644 18.4001 16.4484 21.6641" fill="#FFB11A"/>
    <path fill-rule="evenodd" clip-rule="evenodd" d="M16.6521 21.1879L16.7201 20.9839L16.5841 20.9159C12.4361 17.7879 8.35614 14.5239 4.34414 11.1919L4.14014 11.3279C8.22014 14.7279 12.3001 17.9239 16.4481 21.0519L16.6521 21.1879" fill="#FFB11A"/>
    <path fill-rule="evenodd" clip-rule="evenodd" d="M16.8562 20.4402C13.3882 17.9242 9.03624 14.7282 4.54824 11.0562L4.34424 11.1922C8.42424 14.4562 12.5042 17.6522 16.8562 20.7122V20.4402" fill="#FFB11A"/>
    <path fill-rule="evenodd" clip-rule="evenodd" d="M17.0605 19.8959C12.7765 17.0399 8.62847 14.0479 4.68447 10.9199L4.48047 11.0559C8.56047 14.2519 12.6405 17.2439 16.9245 20.0999V19.8959" fill="#FFB11A"/>
    <path fill-rule="evenodd" clip-rule="evenodd" d="M17.0604 19.3522C12.9804 16.6322 8.90044 13.7762 4.95644 10.7842L4.75244 10.9202C8.73317 13.9688 12.8394 16.85 17.0604 19.5562V19.3522Z" fill="#FFB11A"/>
    <path fill-rule="evenodd" clip-rule="evenodd" d="M17.1961 18.8079C13.1161 16.2239 9.03605 13.5719 5.16005 10.6479L4.95605 10.7839C8.91104 13.7082 12.9951 16.4536 17.1961 19.0119V18.8079" fill="#FFB11A"/>
    <path fill-rule="evenodd" clip-rule="evenodd" d="M17.1962 18.4681V18.1961C13.1162 15.8161 9.24016 13.3001 5.43216 10.5801L5.16016 10.6481C8.90016 13.3681 12.9122 15.9521 17.1962 18.4681" fill="#FFB11A"/>
    <path d="M17.1961 17.9238V17.6518C13.2287 15.4372 9.37087 13.0317 5.63613 10.4438L5.43213 10.5798C9.03613 13.0958 12.9801 15.5438 17.1961 17.9238" fill="#FFB11A"/>
    <path fill-rule="evenodd" clip-rule="evenodd" d="M17.1282 17.3802V17.0402C13.2522 15.0002 9.51223 12.6882 5.90823 10.2402L5.63623 10.3762C9.24023 12.7562 13.1162 15.1362 17.1962 17.3122" fill="#FFB11A"/>
    <path d="M17.0602 16.7682V16.4962C13.2522 14.5922 9.5802 12.4842 6.1802 10.2402L5.9082 10.3082C9.51082 12.6538 13.2332 14.81 17.0602 16.7682" fill="#FFB11A"/>
    <path fill-rule="evenodd" clip-rule="evenodd" d="M16.9242 15.952C13.3202 14.184 9.85218 12.28 6.45218 10.104L6.18018 10.24C9.51218 12.28 13.1162 14.32 16.9922 16.224L16.9242 15.952" fill="#FFB11A"/>
    <path fill-rule="evenodd" clip-rule="evenodd" d="M16.7201 15.4081C13.3201 13.7761 9.92015 12.0081 6.72415 10.0361L6.45215 10.1041C9.64815 12.1441 13.1161 13.9801 16.7881 15.6801V15.4081" fill="#FFB11A"/>
    <path fill-rule="evenodd" clip-rule="evenodd" d="M16.5161 14.8643C13.2521 13.3683 10.1241 11.7363 6.99612 9.96826L6.72412 10.0363C9.92012 11.9403 13.2521 13.6403 16.6521 15.1363L16.5161 14.8643" fill="#FFB11A"/>
    <path fill-rule="evenodd" clip-rule="evenodd" d="M16.2445 14.3199C13.2525 12.9599 10.2605 11.4639 7.40445 9.8999H7.06445C10.0565 11.6679 13.1845 13.2319 16.3805 14.5919L16.2445 14.2519" fill="#FFB11A"/>
    <path fill-rule="evenodd" clip-rule="evenodd" d="M15.9723 13.708C13.1843 12.552 10.4643 11.26 7.8123 9.83203H7.4043C10.2603 11.396 13.1843 12.824 16.1083 14.048L15.9723 13.708" fill="#FFB11A"/>
    <path fill-rule="evenodd" clip-rule="evenodd" d="M15.5641 13.1642C13.0481 12.1442 10.6001 10.9882 8.15214 9.76416H7.74414C10.3961 11.1242 13.0481 12.4162 15.8361 13.5042L15.5641 13.1642" fill="#FFB11A"/>
    <path fill-rule="evenodd" clip-rule="evenodd" d="M15.1562 12.5518C12.9122 11.7358 10.8042 10.7838 8.69621 9.6958H8.22021C10.5322 10.9198 12.9802 12.0078 15.4282 12.9598L15.1562 12.5518" fill="#FFB11A"/>
    <path fill-rule="evenodd" clip-rule="evenodd" d="M14.7483 12.2118L14.5443 12.0078C12.7763 11.3278 11.0083 10.5118 9.24029 9.6958H8.69629C10.704 10.6108 12.7455 11.4501 14.8163 12.2118" fill="#FFB11A"/>
    <path d="M13.7961 11.3282L9.98811 9.76416H9.30811L14.3401 11.8042L13.7961 11.3282ZM12.3001 10.4442L11.6201 10.1722C11.1441 9.96816 10.6681 9.90016 10.1241 9.83216L13.6601 11.1922C13.1841 10.8522 12.7761 10.6482 12.3001 10.4442Z" fill="#FFB11A"/>
    <path d="M16.7882 5.81987L16.5163 5.13987L15.8363 3.77987C16.1763 5.00387 16.6522 6.15987 17.1282 7.38387L16.7882 5.81987ZM17.1282 7.45187L15.5642 3.50787L15.1562 2.96387L17.1963 8.19987L17.1282 7.45187" fill="#FFC556"/>
    <path fill-rule="evenodd" clip-rule="evenodd" d="M17.1963 8.20005C16.3803 6.43205 15.6323 4.59605 14.9523 2.76005L14.6123 2.35205C15.3603 4.52805 16.2443 6.70405 17.1963 8.81205V8.20005Z" fill="#FFC556"/>
    <path fill-rule="evenodd" clip-rule="evenodd" d="M17.196 8.88011C16.1584 6.65037 15.2057 4.38207 14.34 2.08011L14 1.80811C14.884 4.32411 15.972 6.77211 17.06 9.28811V8.74411" fill="#FFC556"/>
    <path fill-rule="evenodd" clip-rule="evenodd" d="M17.1284 9.28826C15.9724 6.84026 14.8164 4.25626 13.8644 1.67226C13.7527 1.60152 13.6394 1.5335 13.5244 1.46826C14.6124 4.25626 15.7684 7.04426 17.1284 9.76426V9.28826Z" fill="#FFC556"/>
    <path fill-rule="evenodd" clip-rule="evenodd" d="M17.0605 9.76393C15.7005 7.04393 14.4765 4.18793 13.3205 1.33193L12.9805 1.12793C14.2045 4.18793 15.5645 7.24793 17.0605 10.1039V9.76393Z" fill="#FFC556"/>
    <path fill-rule="evenodd" clip-rule="evenodd" d="M17.06 10.172C15.496 7.17996 14.068 4.05196 12.776 0.991957L12.436 0.855957C13.796 4.25596 15.36 7.45196 16.924 10.512L17.06 10.172" fill="#FFC556"/>
    <path fill-rule="evenodd" clip-rule="evenodd" d="M16.9244 10.512C15.2244 7.31598 13.6604 4.05198 12.1644 0.719984L11.9604 0.583984C13.3884 4.11998 15.0204 7.51998 16.8564 10.784L16.9244 10.512" fill="#FFC556"/>
    <path fill-rule="evenodd" clip-rule="evenodd" d="M16.856 10.8522C14.952 7.45224 13.252 4.05224 11.688 0.516242L11.416 0.448242C13.0236 4.09613 14.8166 7.65945 16.788 11.1242L16.856 10.8522" fill="#FFC556"/>
    <path fill-rule="evenodd" clip-rule="evenodd" d="M16.7881 11.124C14.7481 7.65601 12.8441 4.05201 11.1441 0.312012H10.8721C12.7081 4.18801 14.6121 7.92801 16.7201 11.396V11.124" fill="#FFC556"/>
    <path fill-rule="evenodd" clip-rule="evenodd" d="M10.6001 0.244269L10.3281 0.17627C12.3001 4.25627 14.4081 8.13227 16.5841 11.7363L16.7201 11.3963C14.4992 7.78113 12.4567 4.05933 10.6001 0.244269" fill="#FFC556"/>
    <path fill-rule="evenodd" clip-rule="evenodd" d="M10.0562 0.10791H9.78418C11.8922 4.25591 14.1362 8.26791 16.4482 11.9399L16.5842 11.6679C14.2042 7.92791 12.0282 4.05191 10.0562 0.10791" fill="#FFC556"/>
    <path fill-rule="evenodd" clip-rule="evenodd" d="M9.51223 0.0400391H9.24023C11.4842 4.32404 13.8642 8.40404 16.3802 12.144L16.5162 11.94C13.8642 8.06404 11.6202 4.12004 9.44423 0.0400391" fill="#FFC556"/>
    <path d="M8.90029 0.0400391H8.69629C11.0763 4.46004 13.6603 8.60804 16.2443 12.416L16.3803 12.212C13.4563 7.79204 10.9403 3.57604 8.90029 0.0400391Z" fill="#FFC556"/>
    <path d="M8.35621 0.0400391H8.22021C10.6682 4.39204 13.3882 8.60804 16.2442 12.62L16.3122 12.416C13.5922 8.40404 10.8722 4.25604 8.42421 0.0400391" fill="#FFC556"/>
    <path fill-rule="evenodd" clip-rule="evenodd" d="M7.6084 0.17591C10.2458 4.50486 13.0588 8.72437 16.0404 12.8239L16.1764 12.6199C13.1844 8.53991 10.4644 4.45991 7.8124 0.10791H7.6084" fill="#FFC556"/>
    <path fill-rule="evenodd" clip-rule="evenodd" d="M7.06445 0.244141C9.85245 4.66414 12.7765 8.88014 15.9045 13.0281L16.0405 12.8241C12.9805 8.74414 10.0565 4.52814 7.33645 0.244141H7.06445" fill="#FFC556"/>
    <path fill-rule="evenodd" clip-rule="evenodd" d="M6.52002 0.447883C9.45547 4.8138 12.5399 9.07765 15.768 13.2319L15.904 13.0959C12.708 8.87988 9.58002 4.66388 6.79202 0.379883H6.52002" fill="#FFC556"/>
    <path fill-rule="evenodd" clip-rule="evenodd" d="M6.24843 0.516113L6.04443 0.584113L6.18043 0.788113C8.69643 4.39211 11.8924 8.81211 15.7004 13.4361L15.7684 13.2321C12.5044 9.15211 9.37643 4.93611 6.31643 0.652113L6.24843 0.516113" fill="#FFC556"/>
    <path fill-rule="evenodd" clip-rule="evenodd" d="M5.704 0.720215L5.5 0.788215L5.772 1.19621C8.9 5.41221 12.164 9.56021 15.496 13.6402L15.632 13.4362C12.3 9.35622 8.9 5.07221 5.704 0.720215Z" fill="#FFC556"/>
    <path fill-rule="evenodd" clip-rule="evenodd" d="M5.02441 1.06019C8.01641 4.86819 11.4844 9.22019 15.3604 13.8442L15.4964 13.6402C12.0063 9.49769 8.60548 5.28072 5.29641 0.992188L5.02441 1.06019" fill="#FFC556"/>
    <path d="M4.548 1.40016L15.224 13.9802L15.36 13.8442C11.7757 9.71076 8.2619 5.51683 4.82 1.26416L4.616 1.33216L4.548 1.40016ZM4.208 1.67216L15.088 14.1842L15.292 13.9802C11.6147 9.87666 7.98781 5.72835 4.412 1.53616C4.276 1.53616 4.208 1.60416 4.208 1.67216V1.67216ZM3.732 2.01216L15.02 14.3202L15.156 14.1842L3.936 1.94416L3.732 2.01216V2.01216ZM3.324 2.42016L14.884 14.5242C14.884 14.4562 14.884 14.3882 15.02 14.3202L3.392 2.28416L3.256 2.42016H3.324ZM2.848 2.82816L14.612 14.6602L14.748 14.5242L3.052 2.62416L2.848 2.82816ZM2.508 3.23616L14.476 14.7962L14.612 14.6602L2.644 3.10016L2.508 3.23616V3.23616ZM2.168 3.71216C6.248 7.38416 10.328 11.1922 14.272 14.9322L14.476 14.7962C10.4656 10.9832 6.40795 7.22024 2.304 3.50816L2.168 3.71216V3.71216ZM1.896 4.18816L14.136 15.0682L14.272 15.0002C10.26 11.2602 6.18 7.52016 2.1 3.98416L1.964 4.18816" fill="#FFC556"/>
    <path fill-rule="evenodd" clip-rule="evenodd" d="M1.62402 4.66396C5.77202 8.06396 9.92002 11.668 13.932 15.272L14.136 15.136C10.056 11.464 5.97602 7.92796 1.76002 4.45996L1.62402 4.66396" fill="#FFC556"/>
    <path d="M1.48831 5.00391L1.42031 5.20791L1.69231 5.41191C5.09231 8.13191 9.30831 11.5319 13.7283 15.4079L13.9323 15.2719C9.87609 11.7395 5.72663 8.31562 1.48831 5.00391V5.00391ZM1.28431 5.47991L1.21631 5.75191L1.35231 5.81991C5.50031 8.94791 9.58031 12.1439 13.5923 15.5439L13.7283 15.4079C9.78431 12.0079 5.63631 8.74391 1.48831 5.61591L1.28431 5.47991" fill="#FFC556"/>
    <path fill-rule="evenodd" clip-rule="evenodd" d="M1.01221 6.22793C4.54821 8.74393 8.90021 11.9399 13.3882 15.6799L13.5922 15.5439C9.51221 12.2119 5.36421 9.08393 1.08021 6.02393V6.22793" fill="#FFC556"/>
    <path fill-rule="evenodd" clip-rule="evenodd" d="M0.876465 6.83987C5.06862 9.67585 9.15156 12.67 13.1165 15.8159L13.3885 15.6799C9.30846 12.4839 5.22846 9.42387 0.944465 6.56787V6.83987" fill="#FFC556"/>
    <path fill-rule="evenodd" clip-rule="evenodd" d="M0.808105 7.38382C4.95611 10.1038 8.96811 12.8918 12.9801 15.8838L13.1841 15.8158C9.1721 12.7558 5.02411 9.83182 0.876106 7.11182V7.38382" fill="#FFC556"/>
    <path fill-rule="evenodd" clip-rule="evenodd" d="M0.740234 7.92812C4.82023 10.4441 8.90024 13.1641 12.7762 16.0881L12.9802 15.8841C9.03623 12.9601 4.95623 10.2401 0.740234 7.72412V7.92812" fill="#FFC556"/>
    <mask id="mask0" mask-type="alpha" maskUnits="userSpaceOnUse" x="0" y="8" width="13" height="9">
        <path d="M0.740234 8.26807H12.7762V16.1561H0.740234V8.26807Z" fill="white"/>
    </mask>
    <g mask="url(#mask0)">
        <path fill-rule="evenodd" clip-rule="evenodd" d="M0.740234 8.2682V8.5402C4.82023 10.8522 8.69623 13.4362 12.5042 16.1562L12.7762 16.0882C9.03623 13.3682 5.02423 10.7842 0.740234 8.2002" fill="#FFC556"/>
    </g>
    <path d="M0.740234 8.81201V9.08401C4.70626 11.2765 8.56408 13.6593 12.3002 16.224C12.3685 16.2023 12.4365 16.1796 12.5042 16.156C8.90023 13.572 4.88823 11.124 0.740234 8.81201Z" fill="#FFC556"/>
    <path d="M0.740234 9.35596L0.808234 9.62796C4.68423 11.668 8.42423 13.912 12.0282 16.428L12.3002 16.292C8.69623 13.844 4.82023 11.532 0.740234 9.35596Z" fill="#FFC556"/>
    <path fill-rule="evenodd" clip-rule="evenodd" d="M0.876465 9.8999V10.1719C4.61646 12.0759 8.28846 14.2519 11.7565 16.4959L12.0285 16.3599C8.56046 14.1159 4.82047 11.9399 0.876465 9.8999Z" fill="#FFC556"/>
    <path d="M1.01234 10.7158C4.27634 12.3478 7.81234 14.2518 11.4843 16.5638L11.7563 16.4958C8.35634 14.3198 4.82034 12.2798 0.944336 10.4438L1.01234 10.7158Z" fill="#FFC556"/>
    <path fill-rule="evenodd" clip-rule="evenodd" d="M1.21608 11.3283C4.61608 12.8923 8.01608 14.7283 11.2121 16.6323H11.4841C8.28808 14.5923 4.82008 12.7563 1.08008 10.9883L1.21608 11.3283" fill="#FFC556"/>
    <path fill-rule="evenodd" clip-rule="evenodd" d="M1.42018 11.8721C4.61618 13.3681 7.81218 14.9321 10.9402 16.7681L11.2122 16.6321C8.01618 14.7961 4.68418 13.0961 1.28418 11.6001L1.42018 11.8721" fill="#FFC556"/>
    <path fill-rule="evenodd" clip-rule="evenodd" d="M1.69228 12.416C4.68428 13.776 7.67628 15.204 10.5323 16.836L10.8723 16.768C7.81228 15.068 4.75228 13.504 1.48828 12.144L1.69228 12.416" fill="#FFC556"/>
    <path fill-rule="evenodd" clip-rule="evenodd" d="M1.96425 12.96C4.61625 14.116 7.40425 15.408 10.1243 16.904L10.5323 16.836C7.67625 15.272 4.75225 13.912 1.76025 12.688L1.96425 12.96" fill="#FFC556"/>
    <path fill-rule="evenodd" clip-rule="evenodd" d="M2.3721 13.5719C4.86752 14.5999 7.31776 15.7343 9.7161 16.9719L10.1241 16.9039C7.5401 15.5439 4.8201 14.3199 2.1001 13.2319L2.3721 13.5719Z" fill="#FFC556"/>
    <path fill-rule="evenodd" clip-rule="evenodd" d="M2.7803 14.1159C4.8883 14.9319 7.0643 15.8839 9.2403 16.9719H9.7163C7.3363 15.7479 4.9563 14.7279 2.5083 13.7759L2.7803 14.1159Z" fill="#FFC556"/>
    <path fill-rule="evenodd" clip-rule="evenodd" d="M3.12012 14.5239L3.32412 14.7279C5.09212 15.4079 6.86012 16.0879 8.69612 16.9719H9.24012C7.23138 16.0798 5.18995 15.2633 3.12012 14.5239" fill="#FFC556"/>
    <path d="M4.14032 15.3401L7.94832 16.9041L8.62832 16.9721L3.52832 14.9321L4.14032 15.3401V15.3401ZM5.70432 16.2921L6.38432 16.5641L7.81232 16.9041L4.41232 15.5441C4.75232 15.8161 5.22832 16.0881 5.70432 16.2241" fill="#FFC556"/>
</svg>
