<svg width="45" height="45" viewBox="0 0 45 45" fill="none" xmlns="http://www.w3.org/2000/svg">
<path d="M22.5374 0C26.431 0 30.3245 0 34.218 0C36.5391 0 38.7854 0.374376 40.7321 1.79701C43.2779 3.51913 44.5508 5.99002 44.9251 9.0599C45 9.88353 45 10.7072 45 11.6057C45 19.1681 45 26.6556 45 34.218C45 36.5391 44.6256 38.7854 43.203 40.7321C41.406 43.3527 38.7854 44.6256 35.7155 44.9251C34.817 45 33.9933 45 33.0948 45C25.6822 45 18.2696 45 10.8569 45C8.61065 45 6.43927 44.6256 4.56739 43.4276C2.09651 41.8552 0.673877 39.609 0.224626 36.6889C0.0748752 35.6406 0 34.5923 0 33.5441C0 25.9817 0 18.4193 0 10.8569C0 8.53577 0.374376 6.28952 1.79701 4.34276C3.59401 1.79701 6.06489 0.449251 9.13478 0.14975C10.0333 0 10.9318 0 11.8303 0C15.3494 0 18.9434 0 22.5374 0ZM11.98 22.3877C11.98 25.8319 13.4027 28.9018 16.0233 31.0732C20.3661 34.6672 26.7305 34.5175 30.8486 30.6988C31.1481 30.3993 31.0732 30.3245 30.8486 30.025C29.8752 29.1265 28.9767 28.1531 28.0782 27.2546C27.7787 26.9551 27.629 26.9551 27.3295 27.2546C23.9601 30.025 19.0932 28.827 17.371 24.7837C15.9484 21.4892 17.8952 17.4459 21.2646 16.3977C23.5108 15.7238 25.5324 16.0982 27.3295 17.5957C27.629 17.8203 27.7787 17.8203 28.0782 17.5957C28.9767 16.6223 29.9501 15.7238 30.9235 14.7504C31.1481 14.5258 31.223 14.376 30.9235 14.1514C28.228 11.7554 25.0832 10.782 21.4892 11.3062C15.9484 12.2795 11.98 16.9218 11.98 22.3877Z" fill="#1652EF"/>
<path d="M11.98 22.3877C11.98 16.9218 15.9484 12.2795 21.4143 11.381C25.0083 10.782 28.1531 11.8303 30.8486 14.2263C31.1481 14.4509 31.0732 14.6007 30.8486 14.8253C29.8752 15.7238 28.9767 16.6972 28.0033 17.6705C27.7038 17.97 27.5541 17.8952 27.2546 17.6705C25.4576 16.173 23.436 15.7987 21.1897 16.4725C17.7454 17.5208 15.8736 21.5641 17.2962 24.8586C19.0183 28.9018 23.8852 30.0998 27.2546 27.3295C27.5541 27.1048 27.7038 27.0299 28.0033 27.3295C28.9018 28.3028 29.8752 29.2013 30.7737 30.0998C30.9983 30.3245 31.0732 30.4742 30.7737 30.7737C26.5807 34.5923 20.2163 34.7421 15.9484 31.1481C13.3278 28.9018 11.9052 25.8319 11.98 22.3877Z" fill="#FAFBFE"/>
</svg>
