<?xml version="1.0" encoding="UTF-8" standalone="no"?>
<!DOCTYPE svg PUBLIC "-//W3C//DTD SVG 1.1//EN" "http://www.w3.org/Graphics/SVG/1.1/DTD/svg11.dtd">
<svg width="100%" height="100%" viewBox="0 0 600 600" version="1.1" xmlns="http://www.w3.org/2000/svg" xmlns:xlink="http://www.w3.org/1999/xlink" xml:space="preserve" xmlns:serif="http://www.serif.com/" style="fill-rule:evenodd;clip-rule:evenodd;stroke-linejoin:round;stroke-miterlimit:2;">
    <rect id="Artboard1" x="0" y="0" width="600" height="600" style="fill:none;"/>
    <clipPath id="_clip1">
        <rect id="Artboard11" serif:id="Artboard1" x="0" y="0" width="600" height="600"/>
    </clipPath>
    <g clip-path="url(#_clip1)">
        <g transform="matrix(1.19689,0,0,1.19689,982.793,299.753)">
            <g transform="matrix(1,0,0,1,-900,-319)">
                <g>
                    <path d="M275.687,315.054L271.345,310.695C268.069,307.422 262.434,309.74 262.434,314.383L262.434,376.637C262.434,379.515 264.789,381.851 267.675,381.851L329.94,381.851C334.579,381.851 336.924,376.227 333.619,372.95C331.602,370.927 331.602,367.605 333.619,365.582L399.851,299.17C401.884,297.14 401.884,293.843 399.851,291.798L393.818,285.787C390.54,282.514 392.877,276.889 397.506,276.889L459.737,276.889C462.614,276.889 464.967,279.226 464.967,282.104L464.967,344.361C464.967,348.999 459.317,351.327 456.039,348.049L451.836,343.855C449.776,341.763 446.498,341.763 444.477,343.855L332.823,455.461C330.794,457.484 327.497,457.484 325.44,455.461L188.835,318.849C187.85,317.872 187.295,316.54 187.295,315.152C187.295,313.763 187.85,312.431 188.835,311.454L377.947,122.347C379.97,120.312 379.97,116.991 377.947,114.963L333.479,70.498C331.448,68.485 328.126,68.485 326.095,70.498L81.298,315.322C79.269,317.358 79.269,320.679 81.298,322.706L326.095,567.503C328.125,569.526 331.456,569.526 333.479,567.503L578.267,322.706C580.289,320.671 580.289,317.367 578.267,315.338L434.25,171.319C432.236,169.293 428.923,169.293 426.882,171.319L283.081,315.056C282.104,316.042 280.772,316.597 279.385,316.597C277.997,316.597 276.665,316.042 275.688,315.056L275.687,315.054ZM1405.68,376.995C1399.37,376.995 1393.92,379.257 1389.36,383.804C1384.85,388.355 1382.55,393.728 1382.55,399.949C1382.55,409.433 1387.36,416.81 1396.91,422.081C1407.39,424.942 1415.82,423.08 1422.16,416.594C1426.74,412.015 1428.99,406.525 1428.99,400.128C1428.99,393.653 1426.74,388.24 1422.16,383.806C1417.61,379.287 1412.15,377.029 1405.66,377.029L1405.68,377.001L1405.68,376.995ZM1033.68,201.03L1016.42,201.03C1008.97,201.03 1002.91,207.048 1002.91,214.503L1002.91,224.13C984.547,205.036 963.758,195.484 940.541,195.484C913.728,195.484 891.355,205.462 873.516,225.363C855.626,245.264 846.717,270.14 846.717,300.007C846.717,330.385 855.626,355.746 873.464,376.072C891.5,395.983 914.242,405.936 941.789,405.936C963.574,405.936 983.961,397.041 1002.91,379.297L1002.91,398.331C1002.91,407.577 1010.42,415.092 1019.66,415.092L1049.12,415.092L1049.12,216.456C1049.12,207.958 1042.2,201.03 1033.68,201.03ZM990.065,347.219C979.563,358.947 965.813,364.802 948.758,364.802C932.783,364.802 919.549,358.74 909.084,346.616C898.835,334.639 893.725,319.054 893.725,299.977C893.725,282.131 898.984,267.101 909.475,254.982C920.102,242.974 933.329,237.003 949.151,237.003C965.924,237.003 979.538,242.919 990.04,254.834C1000.55,266.956 1005.8,282.337 1005.8,301.02C1005.8,319.704 1000.55,335.083 990.04,347.235L990.069,347.22L990.065,347.219ZM846.701,234.64L846.701,214.945C846.701,207.257 840.479,201.064 832.787,201.064L814.598,201.064C806.935,201.064 800.7,207.228 800.7,214.945L800.7,223.548C784.064,204.852 763.206,195.487 738.122,195.487C709.494,195.487 686.427,206.288 668.989,227.802C652.76,248.085 644.651,272.785 644.651,301.828C644.651,331.68 653.395,356.586 670.854,376.471C688.17,396.152 710.384,405.911 737.52,405.911C761.35,405.911 782.428,396.608 800.699,377.923L800.699,405.736C800.699,447.063 783.868,467.727 750.203,467.727C731.927,467.727 718.044,461.505 708.503,449.09C706.07,445.948 704.05,442.016 702.443,437.319C700.188,430.744 693.936,426.371 687.008,426.371L669.572,426.371C660.779,426.371 654.244,434.736 656.468,443.248C661.237,461.357 670.445,476.092 684.155,487.495C701.33,501.822 723.226,509 749.792,509C781.279,509 806.029,498.609 824.038,477.915C833.579,467.143 839.962,454.257 843.243,439.259C844.337,433.829 845.193,427.506 845.796,420.328C846.397,413.195 846.695,404.916 846.695,395.496L846.695,366.555C833.82,347.989 827.34,325.813 827.34,299.985C827.34,274.609 833.807,252.874 846.695,234.661L846.695,234.646L846.701,234.64ZM788.422,345.649C778.202,358.417 764.317,364.8 746.706,364.8C729.118,364.8 715.352,358.457 705.38,345.765C696.265,334.202 691.699,319.318 691.699,301.209C691.699,282.79 696.263,267.792 705.38,256.214C715.493,243.283 729.244,236.814 746.706,236.814C763.057,236.814 776.492,242.74 786.977,254.585C797.343,266.165 802.545,281.637 802.545,301.023C802.545,319.147 797.827,333.999 788.42,345.622L788.42,345.653L788.422,345.649ZM1229.2,201.177L1229.2,201.031L1133.77,201.031L1133.77,142.605C1133.77,135.092 1127.7,129.001 1120.17,129.001L1101.54,129.001C1093.94,129.001 1087.77,135.165 1087.77,142.768L1087.77,201.032L1068.13,201.032L1068.13,243.945L1087.75,243.945L1087.75,415.067L1113.99,415.067C1114,415.067 1114.02,415.067 1114.03,415.067C1124.84,415.067 1133.74,406.167 1133.74,395.352C1133.74,395.339 1133.74,395.325 1133.74,395.312L1133.74,243.973L1180.93,243.973C1184.63,236.868 1189.2,230.252 1194.53,224.276C1204.31,213.622 1215.87,205.902 1229.17,201.177L1229.2,201.177L1229.2,201.177ZM1463.98,129C1455.82,129 1448.81,131.936 1442.94,137.806C1437.09,143.66 1434.13,150.632 1434.13,158.66C1434.13,167.131 1437.07,174.232 1442.94,180.148C1448.81,186.002 1455.91,188.924 1464.21,188.924C1472.54,188.924 1479.54,186.003 1485.25,180.131C1491.1,174.232 1494.07,167.189 1494.07,158.867C1494.07,150.573 1491.13,143.531 1485.26,137.837C1479.38,131.938 1472.29,129 1463.98,129ZM1473.3,223.572L1456.61,223.572C1448.06,223.572 1441.09,230.501 1441.09,239.099L1441.09,385.184C1444.61,389.309 1446.28,394.167 1446.28,399.816C1446.28,405.465 1444.61,410.381 1441.09,414.536L1441.09,422.757L1470.7,422.757C1479.78,422.757 1487.11,415.403 1487.11,406.317L1487.11,237.339C1487.11,229.735 1480.92,223.572 1473.29,223.572L1473.3,223.572ZM1689.55,251.782C1668.83,231.483 1643.6,221.327 1613.88,221.327C1584.3,221.327 1559.2,231.396 1538.62,251.605C1518.05,271.769 1507.74,296.25 1507.74,325.014C1507.74,355.541 1517.81,380.902 1538.01,401.094C1558.2,421.525 1583.24,431.753 1613.06,431.753C1643.17,431.753 1668.61,421.743 1689.35,401.695C1709.89,381.486 1720.22,356.507 1720.22,326.643C1720.22,297.041 1709.99,272.091 1689.55,251.75L1689.55,251.782ZM1657,373.269C1646.26,384.877 1631.87,390.616 1613.88,390.616C1595.99,390.616 1581.62,384.79 1570.71,373.033C1560.08,361.47 1554.75,345.679 1554.75,325.807C1554.75,307.286 1560.24,292.14 1571.14,280.428C1582.03,268.716 1596.27,262.83 1613.88,262.83C1631.71,262.83 1646.11,268.716 1657,280.428C1667.78,291.992 1673.17,307.492 1673.17,326.805C1673.17,346.207 1667.77,361.645 1657,373.238L1657,373.269Z" style="fill:rgb(222,89,89);fill-rule:nonzero;"/>
                </g>
            </g>
        </g>
    </g>
</svg>
