<svg width="93" height="93" viewBox="0 0 93 93" fill="none" xmlns="http://www.w3.org/2000/svg">
<path d="M92.3409 46.3978C92.261 71.7932 71.5857 92.4298 46.1491 92.4122C20.6268 92.388 -0.0125854 71.7273 5.75788e-06 46.2034C0.0115177 20.6186 20.6804 -0.0305681 46.234 3.39702e-05C71.7318 0.030276 92.4132 20.7392 92.3409 46.3978Z" fill="#FCC32A"/>
<path d="M46.1508 89.115C39.2979 89.102 32.8258 87.5017 27.0907 84.6445C25.3887 83.7934 23.7655 82.8538 22.2049 81.7867C19.2338 79.7929 16.531 77.4181 14.1578 74.7511C13.144 73.6332 12.2036 72.452 11.3165 71.22C9.67926 68.9338 8.24497 66.4575 7.07651 63.8538L7.05241 63.8031C6.70993 63.0539 6.3926 62.2791 6.08682 61.4917C4.28593 56.7419 3.2959 51.5853 3.2959 46.2004C3.2959 41.6918 3.99381 37.3611 5.27451 33.2845C5.52957 32.446 5.82025 31.6205 6.13755 30.8076C7.55999 27.0738 9.50046 23.5812 11.8622 20.4443C12.763 19.2375 13.739 18.0818 14.7808 16.9769C17.28 14.2716 20.135 11.8843 23.2698 9.91537C23.7774 9.58522 24.2864 9.28064 24.8052 8.9757C31.0946 5.36609 38.3788 3.29883 46.1584 3.29883C46.181 3.29883 46.204 3.29883 46.2267 3.29883C68.4997 3.32403 86.8112 20.3427 88.8556 42.1998C88.9812 43.5715 89.0459 44.9684 89.0459 46.3905C89.0319 49.045 88.7794 51.6483 88.2959 54.176C88.221 54.684 88.1196 55.1791 87.9912 55.6745C87.5357 57.745 86.9126 59.7766 86.1636 61.72C85.6942 62.9009 85.1866 64.0569 84.6293 65.187C84.4138 65.619 84.198 66.0507 83.9681 66.4698C82.0406 70.0643 79.6155 73.3535 76.7739 76.2365C76.2663 76.7571 75.7321 77.2781 75.1878 77.7735C74.9975 77.9513 74.8057 78.1288 74.6039 78.3067C74.4262 78.4719 74.2359 78.6372 74.0456 78.7895C73.2448 79.4879 72.4084 80.1486 71.5453 80.7833C70.6431 81.4565 69.7038 82.0916 68.7407 82.6759C66.0743 84.3396 63.219 85.7113 60.2111 86.7651C56.5561 88.0226 52.673 88.81 48.6514 89.0386L48.3708 89.0642H48.3582C47.6221 89.102 46.8861 89.115 46.1501 89.115H46.1508ZM18.9269 73.388C22.3916 77.0549 26.6338 79.9974 31.2821 82.0383C35.9458 84.0487 41.0222 85.1208 46.1209 85.1831C46.3102 85.1857 46.4994 85.1867 46.6882 85.1867C51.602 85.1867 56.5108 84.1668 61.0655 82.3101C65.7977 80.3757 70.1405 77.488 73.7722 73.8823C77.3815 70.2537 80.2785 65.9164 82.219 61.1832C84.157 56.4539 85.1851 51.3405 85.1139 46.2325C85.0592 41.1298 83.9998 36.0495 81.9982 31.3782C79.9703 26.7238 77.0401 22.4716 73.3851 18.9984L73.384 18.997C72.1033 17.7027 70.7291 16.5027 69.2595 15.4065C69.167 15.3341 69.0742 15.2603 68.9803 15.1879C68.9476 15.1613 68.913 15.1346 68.8789 15.1105C66.4423 13.2359 63.7723 11.6532 60.9501 10.4054C56.2928 8.3795 51.22 7.29366 46.1209 7.21481C45.8965 7.20977 45.672 7.20833 45.4486 7.20833C40.5689 7.20833 35.6958 8.21173 31.1691 10.0421C26.4305 11.9625 22.079 14.8362 18.4355 18.4307C14.815 22.0489 11.9039 26.3771 9.94943 31.1039C7.99744 35.827 6.95561 40.9379 7.01029 46.046C7.04842 51.1486 8.09423 56.2328 10.0804 60.9103C12.0943 65.5722 15.0129 69.8335 18.6589 73.3196C16.5461 71.0993 14.7121 68.6321 13.1882 65.9938C13.8671 67.1128 14.5981 68.195 15.4028 69.2391C16.658 70.9535 18.0808 72.5538 19.6274 74.0382C19.6565 74.0677 19.6856 74.0969 19.7162 74.1261C19.4496 73.8834 19.187 73.6382 18.9269 73.388ZM13.1616 65.9495C13.131 65.8963 13.1019 65.8455 13.0717 65.7922C13.0994 65.8405 13.1274 65.8873 13.1551 65.9369L13.1616 65.9495Z" fill="#F6B50C"/>
<path d="M49.8186 73.2665H46.0251V71.0311C46.0251 69.9518 46.0114 68.8595 46.0366 67.7924V67.3722C46.0506 67.0939 45.9999 66.8909 45.8603 66.789V66.7763C45.7715 66.7105 45.643 66.6723 45.4592 66.6723C45.4326 66.6723 45.4059 66.6723 45.3768 66.6748C45.0163 66.6914 44.6559 66.6964 44.2879 66.6964C43.813 66.6964 43.327 66.6889 42.8133 66.6889V73.2154H38.397V66.6889H27.4463V59.2706H30.6811V33.7938H27.4715V26.4022H38.3714V19.1758H42.751V26.3007H45.9999V19.1758H50.4158V20.4459C50.4158 22.1604 50.4413 23.8878 50.4021 25.6022C50.3906 26.2499 50.619 26.4022 51.2407 26.4911C53.0556 26.7579 54.9202 26.9609 56.6595 27.5327C59.6789 28.5105 61.6456 30.3649 62.5087 32.9175C62.7497 33.616 62.9019 34.3652 62.9656 35.1655C63.0303 35.7876 63.0303 36.4483 62.9781 37.1212C62.9148 37.9723 62.826 38.836 62.662 39.6741C62.2054 41.8713 60.86 43.3827 58.9296 44.4239C58.4727 44.6651 58.0046 44.8811 57.4575 45.1605C58.182 45.4655 58.8281 45.7067 59.4512 46.0116C62.0263 47.2688 63.6757 49.1233 64.4258 51.5362C64.729 52.4758 64.8952 53.5048 64.9334 54.6097C64.9841 56.4131 64.8445 58.2042 64.1963 59.9183C64.0944 60.1976 63.9678 60.4644 63.8419 60.7312C62.9015 62.6491 61.4294 64.0459 59.412 64.973C56.9373 66.1031 54.3485 66.4844 51.6961 66.6111C51.5565 66.6241 51.418 66.6367 51.2774 66.6367C50.6187 66.6622 50.3762 66.8145 50.3903 67.5256C50.4018 68.3133 50.4018 69.1133 50.3903 69.9006C50.3762 70.8025 50.3647 71.7044 50.3647 72.6062L50.3395 72.8726C50.2874 73.1268 50.1492 73.2539 49.8179 73.2665H49.8186ZM43.1395 49.1208C42.7208 49.1208 42.5862 49.3152 42.5862 49.7584C42.6103 52.6159 42.6103 55.4478 42.5862 58.3057V58.5851C42.5862 59.1312 42.8021 59.2836 43.245 59.2836H43.3223C44.6041 59.2584 45.8718 59.2835 47.154 59.2583C49.7046 59.2076 51.4558 57.6958 51.9127 55.1814C52.2947 53.0479 51.6346 51.2572 50.264 50.1904C50.1359 50.1015 50.0089 50.0126 49.8708 49.9236L49.7423 49.8477C48.9556 49.3904 47.9911 49.1363 46.887 49.1363C46.7219 49.1327 46.5582 49.1312 46.3931 49.1312C46.0632 49.1312 45.7333 49.1363 45.402 49.1363C45.0466 49.1363 44.689 49.1402 44.3296 49.1402C43.959 49.1402 43.587 49.1363 43.2205 49.1237C43.1913 49.1222 43.1647 49.1211 43.1392 49.1211L43.1395 49.1208ZM43.1737 33.9324C42.7283 33.9324 42.5862 34.1142 42.5862 34.569C42.6103 35.8136 42.5988 37.0708 42.5988 38.3157C42.5988 39.5729 42.6103 40.8175 42.5862 42.0751C42.5862 42.4827 42.7057 42.6846 43.1194 42.6846C43.1305 42.6846 43.1435 42.6846 43.1561 42.6846H43.3464C44.6156 42.6465 45.8848 42.6846 47.1424 42.5831C48.589 42.4816 49.6413 41.5541 49.9078 40.1447C50.074 39.2554 50.1503 38.3157 50.06 37.4265C50.0093 36.7532 49.819 36.1563 49.5157 35.6739C49.3747 35.4327 49.2099 35.2167 49.0207 35.0388L48.8671 34.8865C48.7289 34.7594 48.5753 34.6449 48.4116 34.5434C47.8022 34.1495 47.0396 33.9465 46.1906 33.9465C45.9571 33.944 45.7236 33.9425 45.4901 33.9425C45.2959 33.9425 45.103 33.944 44.9088 33.944C44.712 33.9451 44.5141 33.945 44.3173 33.945C43.9518 33.945 43.5864 33.9425 43.2208 33.9339C43.2043 33.9339 43.1892 33.9324 43.1737 33.9324Z" fill="#F6B50C"/>
<path d="M73.3823 18.9945C77.0398 22.4695 79.9696 26.7213 81.9989 31.3783C84.0006 36.0496 85.06 41.1299 85.1147 46.2325C85.186 51.3405 84.1578 56.4539 82.2198 61.1832C80.2793 65.9165 77.3823 70.254 73.773 73.8823C70.141 77.488 65.7985 80.3757 61.0663 82.3101C56.3367 84.2395 51.2247 85.2642 46.1217 85.1832C41.023 85.1209 35.9467 84.0487 31.2829 82.0383C26.6346 79.9973 22.3921 77.0549 18.9277 73.388C26.1979 80.3858 36.1513 84.3727 46.1235 84.2482C51.0981 84.1808 56.063 83.2156 60.644 81.2877C65.2275 79.3749 69.4157 76.5404 72.9168 73.0237C76.4412 69.5297 79.2836 65.3451 81.201 60.7591C83.1354 56.1796 84.1085 51.2109 84.1848 46.2325C84.3243 36.2541 80.361 26.2832 73.3827 18.9941L73.3823 18.9945Z" fill="#FEFEFE"/>
<path d="M13.1893 65.9947C13.1828 65.9846 13.1767 65.9734 13.1702 65.963L13.1626 65.9504C13.1716 65.9644 13.1803 65.9795 13.1893 65.9947ZM13.0727 65.7931C13 65.6685 12.9266 65.5464 12.8518 65.4168C12.5611 64.9088 12.269 64.3882 12.0028 63.8547L11.9762 63.8039C11.4305 62.7753 10.9495 61.7212 10.5038 60.6414C8.56329 55.879 7.56067 50.6717 7.69918 45.2486C7.75134 43.1529 7.97977 41.1087 8.35895 39.1145C8.5381 38.1367 8.75393 37.1715 9.00755 36.2314C9.97203 32.6244 11.4441 29.2337 13.3335 26.1346C14.5012 24.2167 15.8212 22.4134 17.3195 20.7497C19.8565 17.8288 22.8513 15.3014 26.1761 13.2821C26.7093 12.9519 27.2565 12.647 27.8008 12.355C33.0797 9.47192 39.108 7.79565 45.5169 7.70673C45.7122 7.70421 45.9075 7.70312 46.1032 7.70312C54.7023 7.70312 62.4613 10.4386 68.7278 15.0095C68.781 15.0411 68.8306 15.0743 68.8799 15.111C68.9141 15.1366 68.9472 15.1632 68.9814 15.1884C69.0159 15.2165 69.0501 15.2456 69.0843 15.2762C69.1426 15.3194 69.2022 15.3637 69.2605 15.4069C70.6909 16.5374 72.0363 17.768 73.2807 19.0939C66.1145 12.1545 56.3176 8.14883 46.4605 8.14883C46.3465 8.14883 46.232 8.14884 46.118 8.14992C41.1434 8.20212 36.1749 9.15223 31.5885 11.0661C26.9974 12.9649 22.8017 15.7868 19.2906 19.2934C15.7546 22.7759 12.9007 26.9518 10.9693 31.5313C9.02123 36.1069 8.03121 41.0705 7.94127 46.049C7.82327 52.9197 9.65187 59.7918 13.072 65.7931H13.0727Z" fill="#F6B50C"/>
<path d="M18.6594 73.3203C15.0134 69.8338 12.0948 65.5729 10.0809 60.9109C8.09475 56.2335 7.04897 51.1492 7.01084 46.0466C6.95616 40.9386 7.99799 35.8277 9.94998 31.1045C11.9045 26.3778 14.8155 22.0492 18.436 18.4313C22.0799 14.8368 26.4311 11.9631 31.1697 10.0428C35.6963 8.21239 40.5695 7.20898 45.4491 7.20898C45.6725 7.20898 45.897 7.21043 46.1215 7.21547C51.2205 7.29432 56.2933 8.38015 60.9506 10.406C63.7728 11.6542 66.4428 13.2369 68.8794 15.1112C68.8301 15.0744 68.7805 15.0413 68.7272 15.0096C62.4608 10.4388 54.7018 7.70331 46.1027 7.70331C45.907 7.70331 45.7117 7.70438 45.5164 7.7069C39.1075 7.79583 33.0795 9.47247 27.8003 12.3552C27.256 12.6472 26.7088 12.9521 26.1756 13.2823C22.8508 15.3016 19.856 17.829 17.319 20.7499C15.8203 22.4139 14.5004 24.2173 13.333 26.1348C11.4433 29.2338 9.97117 32.6245 9.00705 36.2316C8.75343 37.1717 8.5376 38.1369 8.35845 39.1147C7.97928 41.1089 7.75084 43.1531 7.69868 45.2488C7.56018 50.6718 8.56279 55.8793 10.5033 60.6417C10.949 61.7214 11.43 62.7755 11.9757 63.8041L12.0023 63.8549C12.2685 64.3884 12.5606 64.909 12.8513 65.417C12.9261 65.5466 12.9995 65.6687 13.0722 65.7933C13.1024 65.8465 13.1315 65.8973 13.1621 65.9506L13.1697 65.9632C13.1762 65.9736 13.1823 65.9848 13.1888 65.9949C14.713 68.6331 16.547 71.1004 18.6594 73.3206V73.3203ZM69.2604 15.4067C69.2021 15.3635 69.1424 15.3193 69.0841 15.2761C69.0499 15.2455 69.0158 15.2163 68.9812 15.1882C69.0751 15.2606 69.168 15.3344 69.2604 15.4067Z" fill="#DDA316"/>
<path d="M27.4672 33.7956C27.428 33.1796 27.3999 32.5625 27.3758 31.9465C27.3532 31.3305 27.3161 30.7131 27.3035 30.0971L27.2096 26.3986L27.2031 26.1458L27.4672 26.1408C31.1007 26.08 34.7337 26.0785 38.3672 26.1433L38.1122 26.3986L38.2061 22.7879L38.2784 20.982C38.3014 20.3797 38.3291 19.7777 38.3672 19.1758C38.4053 19.7777 38.4334 20.3797 38.4561 20.982L38.5284 22.7879L38.6237 26.3986L38.6299 26.6502L38.3672 26.6542C34.7337 26.7186 31.1007 26.7176 27.4672 26.6567L27.7248 26.3986L27.6298 30.0971C27.6168 30.7131 27.5802 31.3305 27.5575 31.9465C27.5334 32.5625 27.5053 33.1796 27.4672 33.7956Z" fill="#FEFEFE"/>
<path d="M27.4407 66.6919C27.385 65.4549 27.3558 64.2167 27.3162 62.9797C27.272 61.7412 27.2645 60.5027 27.2364 59.2657L27.2324 59.0652L27.4407 59.0627L30.677 59.0079L30.418 59.2657L30.3799 52.8994C30.3662 50.7756 30.3979 48.6536 30.4054 46.5313C30.4079 44.4089 30.4522 42.287 30.4917 40.165C30.5248 38.0412 30.5946 35.9192 30.677 33.7969C30.7583 35.9192 30.8292 38.0412 30.8609 40.165C30.9015 42.287 30.9461 44.4089 30.9486 46.5313C30.9547 48.6536 30.9878 50.7756 30.9738 52.8994L30.936 59.2657L30.9332 59.5289L30.677 59.5249L27.4407 59.4691L27.6425 59.2657C27.6159 60.5027 27.6084 61.7412 27.5637 62.9797C27.5245 64.2167 27.4965 65.4549 27.4407 66.6919Z" fill="#FEFEFE"/>
<path d="M43.3262 59.2796C44.0291 59.2112 44.7335 59.1821 45.4379 59.1309L47.5485 59.046C48.8645 58.9635 50.1196 58.2129 50.8697 57.1371C51.6374 56.0574 51.8622 54.6526 51.687 53.3104C51.6043 52.6383 51.3888 51.982 51.046 51.3886C50.7251 50.7816 50.2617 50.247 49.7034 49.8164C50.9701 50.4691 51.8673 51.7951 52.1475 53.2316C52.4508 54.6515 52.2328 56.2453 51.3672 57.486C50.4966 58.7029 49.0649 59.5345 47.5511 59.5104C46.1398 59.4647 44.7349 59.4038 43.3265 59.2793L43.3262 59.2796Z" fill="#FEFEFE"/>
<path d="M43.3262 42.6842C44.477 42.5596 45.6663 42.4948 46.7884 42.434C47.8468 42.2903 48.7857 41.5588 49.2933 40.6227C49.8254 39.6816 49.9139 38.5234 49.7552 37.4246C49.5779 36.3298 49.1005 35.249 48.2997 34.4004C49.2566 35.0776 49.9344 36.1584 50.2096 37.3346C50.4801 38.4993 50.4319 39.8037 49.8254 40.9136C49.2275 42.0045 48.1029 42.8415 46.8276 42.9103C45.6282 42.8963 44.495 42.7973 43.3262 42.6842Z" fill="#FEFEFE"/>
<path d="M38.3951 66.6914C38.6336 67.7787 38.6883 68.8645 38.6983 69.9518C38.6893 71.0376 38.635 72.1249 38.3951 73.2107C38.154 72.1249 38.1004 71.0376 38.0918 69.9518C38.1019 68.8645 38.1551 67.7787 38.3951 66.6914Z" fill="#FEFEFE"/>
<path d="M45.8558 66.7812C46.0954 67.861 46.149 68.9418 46.1591 70.0215C46.1501 71.1008 46.0969 72.1816 45.8558 73.2613C45.6145 72.1816 45.5612 71.1008 45.5522 70.0215C45.5627 68.9418 45.6159 67.861 45.8558 66.7812Z" fill="#FEFEFE"/>
</svg>
