<svg width="36" height="56" viewBox="0 0 36 56" fill="none" xmlns="http://www.w3.org/2000/svg">
<g clip-path="url(#clip0)">
<path d="M16.16 2.89656C16.08 2.09197 16.08 1.28737 16 0.563232C16 0.402312 15.92 0.160933 16.08 0.0804732C16.32 -0.0804463 16.48 0.160933 16.56 0.321853C18.56 2.09197 20.24 4.18392 21.68 6.51726C23.76 9.81611 24.88 13.4368 25.44 17.2989C25.92 20.5173 24.88 23.2529 22.96 25.8276C21.52 27.6782 19.84 29.3678 18.16 30.977C12.64 36.5287 8.96 43.4483 7.04 51.2529C6.8 52.0575 6.8 52.0575 6.16 51.5747C-1.36 45.1379 -2.08 33.2299 4.64 25.6667C5.92 24.2184 7.6 23.0115 8.88 21.5632C12.72 17.2989 15.2 12.4713 15.92 6.75863C16.08 5.47128 16.16 4.18392 16.16 2.89656Z" fill="#1C2043"/>
<path d="M36 37.5747C36.08 46.908 29.76 54.069 21.12 55.7586C18.16 56.3218 15.28 55.9195 12.48 55.1149C12.16 55.0345 12 54.8736 12.08 54.5517C12.08 54.2299 12.24 54.069 12.56 53.9885C13.68 53.8276 14.32 53.1839 14.56 52.1379C14.64 51.8161 14.72 51.4942 14.8 51.1724C14.96 47.7126 16.72 44.977 18.8 42.4023C20.56 40.1494 22.72 38.2988 24.64 36.2069C27.84 32.6667 30.4 28.8046 32 24.2988C32.08 24.0575 32.08 23.8161 32.32 23.7356C32.64 23.6552 32.72 23.977 32.8 24.2184C34.56 27.5172 35.6 31.0575 35.92 34.8391C36 35.6437 36 36.6092 36 37.5747Z" fill="#25A9E0"/>
</g>
<defs>
<clipPath id="clip0">
<rect width="36" height="56" fill="white"/>
</clipPath>
</defs>
</svg>
