<svg width="36" height="34" viewBox="0 0 36 34" fill="none" xmlns="http://www.w3.org/2000/svg">
<path d="M33.9031 3.54536L15.786 21.7111L8.84046 14.7167C8.45184 14.3281 7.86911 14.3281 7.48046 14.7167C7.09184 15.1053 7.09184 15.688 7.48046 16.0767L15.1063 23.7026C15.3005 23.8967 15.5434 23.994 15.7863 23.994C16.0293 23.994 16.2722 23.8967 16.4663 23.7026L35.2635 4.90545C35.6521 4.51683 35.6521 3.93411 35.2635 3.54545C34.9233 3.20528 34.2918 3.20528 33.9031 3.54511L33.9031 3.54536Z" fill="#374B77"/>
<path d="M17.0003 33.9996C26.3746 33.9996 34.0003 26.3738 34.0003 16.9996C34.0003 15.4452 33.8061 13.8427 33.3688 12.3854C33.2231 11.8511 32.6888 11.5598 32.1545 11.7055C31.6202 11.8512 31.3288 12.3854 31.4745 12.9197C31.8631 14.2313 32.0572 15.6397 32.0572 17.0485C32.0572 25.3544 25.3058 32.1056 17.0001 32.1056C8.69455 32.1053 1.94295 25.3055 1.94295 16.9999C1.94295 8.69438 8.69438 1.94278 17.0001 1.94278C20.5457 1.94278 23.9945 3.20555 26.7144 5.48841C27.103 5.82857 27.7346 5.77978 28.0744 5.39117C28.4145 5.00255 28.3658 4.371 27.9771 4.03117C24.9174 1.40848 20.9831 0 17 0C7.62571 0 0 7.62589 0 17C0 26.3741 7.62589 34 17 34L17.0003 33.9996Z" fill="#374B77"/>
</svg>
