<svg width="30" height="37" viewBox="0 0 30 37" fill="none" xmlns="http://www.w3.org/2000/svg">
<path d="M21.1383 0H3.70052C2.72292 0.000331269 1.78466 0.387608 1.09159 1.07734C0.3982 1.76676 0.00593671 2.70265 0 3.68059V33.0478C0.00265032 34.0268 0.3939 34.9644 1.08794 35.6547C1.782 36.3448 2.7219 36.7314 3.70052 36.7288H26.3194C27.2951 36.7271 28.2303 36.3388 28.9204 35.6488C29.6101 34.959 29.9984 34.0235 30 33.0478V10.3696L21.1383 0ZM28.3018 33.048L28.3022 33.0477C28.3022 33.5724 28.0935 34.076 27.7224 34.447C27.3514 34.8181 26.8481 35.0268 26.3231 35.0268H3.69993C3.17185 35.0318 2.66329 34.8257 2.28801 34.454C1.91266 34.0823 1.70129 33.576 1.70129 33.0477V3.68043C1.70129 3.15202 1.91266 2.64583 2.28801 2.27411C2.66336 1.9024 3.1719 1.69634 3.69993 1.70164H20.3617L27.3075 9.81526H21.9645L21.9648 9.81493C21.4367 9.82023 20.9282 9.61417 20.5529 9.24247C20.1775 8.87076 19.9662 8.36451 19.9662 7.83614V3.68044H18.2644V7.83614C18.267 8.81511 18.6583 9.75268 19.3523 10.443C20.0464 11.1331 20.9863 11.5194 21.9649 11.5167H28.2975L28.3018 33.048Z" fill="#374B77"/>
<path d="M5.64948 22.7833H24.3603V25.053H5.64948V22.7833Z" fill="#374B77"/>
<path d="M5.64948 28.3315H24.3603V30.6012H5.64948V28.3315Z" fill="#374B77"/>
<path d="M5.64948 17.2341H24.3603V19.5038H5.64948V17.2341Z" fill="#374B77"/>
<path d="M5.64948 11.6833H15.0057V13.953H5.64948V11.6833Z" fill="#374B77"/>
</svg>
