<svg width="38" height="35" viewBox="0 0 38 35" fill="none" xmlns="http://www.w3.org/2000/svg">
<path d="M31.8717 0C30.4399 0.0369068 29.2809 1.23446 29.2809 2.68948C29.2809 3.35616 29.5254 3.96974 29.927 4.44237L24.4842 12.2783C24.1909 12.1649 23.873 12.1026 23.5414 12.1026C22.8524 12.1026 22.2225 12.3716 21.749 12.8106L17.2018 9.78164C17.2989 9.50351 17.3515 9.2053 17.3515 8.89556C17.3515 7.41749 16.1507 6.20608 14.6876 6.20608C13.2245 6.20608 12.0275 7.41749 12.0275 8.89556C12.0275 9.36324 12.1477 9.80462 12.3577 10.19L7.49841 14.7886C7.08255 14.5169 6.58863 14.3584 6.06045 14.3584C4.59734 14.3584 3.40037 15.571 3.40037 17.0491C3.40037 18.5271 4.59734 19.7435 6.06045 19.7435C7.52327 19.7435 8.72435 18.5271 8.72435 17.0491C8.72435 16.5808 8.60415 16.1394 8.393 15.7547L13.2538 11.1613C13.6682 11.4324 14.1609 11.5901 14.6879 11.5901C15.3755 11.5901 16.0045 11.322 16.4792 10.8835L21.029 13.914C20.934 14.1898 20.8819 14.4862 20.8819 14.7936C20.8819 16.2717 22.0789 17.4881 23.542 17.4881C25.0051 17.4881 26.2021 16.2716 26.2021 14.7936C26.2021 14.1275 25.9582 13.5149 25.5573 13.0434L30.9962 5.20743C31.2904 5.32199 31.6091 5.38577 31.9416 5.38577C33.4048 5.38577 34.6017 4.16817 34.6017 2.68979C34.6017 1.21172 33.4048 0.000317457 31.9416 0.000317457C31.9194 0.000317457 31.8954 -0.000273091 31.8726 0.000317457L31.8717 0ZM31.9407 1.32274C32.6938 1.32274 33.2945 1.92447 33.2945 2.68948C33.2945 3.45448 32.6938 4.0612 31.9407 4.0612C31.1877 4.0612 30.5908 3.45445 30.5908 2.68948C30.5908 1.9245 31.1877 1.32274 31.9407 1.32274ZM14.687 7.52844C15.4401 7.52844 16.0407 8.13017 16.0407 8.89518C16.0407 9.66018 15.44 10.2669 14.687 10.2669C13.9339 10.2669 13.3371 9.66015 13.3371 8.89518C13.3371 8.1302 13.9337 7.52844 14.687 7.52844ZM30.0788 12.3517C29.9042 12.3511 29.7366 12.4208 29.6132 12.5454C29.4895 12.67 29.4205 12.8395 29.4211 13.0157V33.677H25.8321V22.2968H25.8324C25.831 21.9316 25.5365 21.6366 25.1747 21.6381H21.4513C21.0895 21.6367 20.7953 21.9316 20.7939 22.2968V33.677H17.2061V17.6582C17.207 17.4819 17.1377 17.3127 17.0143 17.1881C16.8909 17.0635 16.7233 16.9938 16.5487 16.9944H12.8241C12.6495 16.9938 12.4816 17.0635 12.3582 17.1881C12.2348 17.3127 12.1658 17.4819 12.1664 17.6582V33.677H8.57863V26.9392L8.57892 26.9395C8.57746 26.5743 8.28297 26.2793 7.9212 26.2808H4.19809C3.83634 26.2793 3.54185 26.5743 3.54038 26.9395V33.6773H0.65772C0.295965 33.6758 0.00147107 33.9707 3.68791e-06 34.336C-0.000581244 34.5122 0.0684361 34.6817 0.191849 34.8063C0.315551 34.9309 0.483124 35.0006 0.65772 35H37.3423C37.5169 35.0006 37.6844 34.9309 37.8082 34.8063C37.9316 34.6817 38.0006 34.5122 38 34.336C37.9985 33.9707 37.704 33.6758 37.3423 33.6773H34.4596V13.016C34.4602 12.8398 34.3912 12.6703 34.2678 12.5457C34.1444 12.4211 33.9765 12.3514 33.8019 12.352L30.0788 12.3517ZM23.5409 13.4252C24.2939 13.4252 24.8893 14.0281 24.8893 14.7932C24.8893 15.5582 24.2939 16.1649 23.5409 16.1649C22.7878 16.1649 22.1871 15.5581 22.1871 14.7932C22.1871 14.0282 22.7878 13.4252 23.5409 13.4252ZM30.7316 13.6744H33.1498V33.6773H30.7316V13.6744ZM6.06006 15.6819C6.81314 15.6819 7.41379 16.2836 7.41379 17.0486C7.41379 17.8136 6.81311 18.4204 6.06006 18.4204C5.30701 18.4204 4.71014 17.8136 4.71014 17.0486C4.71014 16.2837 5.30703 15.6819 6.06006 15.6819ZM13.4783 18.3182H15.895V33.6772H13.4783V18.3182ZM22.1044 22.9608H24.5227V33.6773H22.1044V22.9608ZM4.85067 27.6034H7.26893V33.6771H4.85067V27.6034Z" fill="#374B77"/>
</svg>
