<svg width="26" height="28" viewBox="0 0 26 28" fill="none" xmlns="http://www.w3.org/2000/svg">
<path d="M22.2018 10.4844C22.7408 9.6147 23.0089 8.62593 22.978 7.62121C22.9471 6.61649 22.6185 5.63263 22.0263 4.77226C21.4342 3.9119 20.6003 3.20656 19.6115 2.72982C18.6228 2.25308 17.5154 2.02241 16.405 2.06187C15.2947 2.10134 14.2219 2.40949 13.2987 2.95418C12.3755 3.49887 11.6356 4.26014 11.1563 5.15859C10.6769 6.05703 10.4757 7.05972 10.5736 8.06206C10.6715 9.0644 11.0649 10.0297 11.7127 10.8572L5.3964 21.0436L6.43489 24.3318L10.0561 23.4548L9.36373 21.2627L11.7778 20.6781L11.0855 18.486L13.4996 17.9013L12.8073 15.7092L15.2214 15.1246L16.3724 13.2683C17.5465 13.3552 18.7175 13.1397 19.7494 12.6469C20.7813 12.1541 21.6317 11.4042 22.2018 10.4844ZM19.1797 7.08669C18.9514 7.45491 18.5687 7.72337 18.116 7.83301C17.6633 7.94265 17.1775 7.88449 16.7656 7.67133C16.3536 7.45817 16.0493 7.10747 15.9194 6.69637C15.7896 6.28527 15.8449 5.84746 16.0732 5.47924C16.3016 5.11102 16.6842 4.84256 17.1369 4.73292C17.5896 4.62327 18.0754 4.68143 18.4873 4.89459C18.8993 5.10775 19.2037 5.45846 19.3335 5.86956C19.4633 6.28065 19.408 6.71847 19.1797 7.08669Z" fill="#86CC46"/>
</svg>
