<svg width="41" height="32" viewBox="0 0 41 32" fill="none" xmlns="http://www.w3.org/2000/svg">
<g clip-path="url(#clip0)">
<path d="M40.9135 23.5925C40.9135 25.6514 40.9135 27.2815 40.9135 28.9115C40.9135 30.7989 39.789 31.9142 38.0591 32C36.3291 32 35.1181 30.7989 35.0316 28.9115C35.0316 26.252 35.0316 23.5067 35.0316 20.8472C35.0316 18.7882 33.9072 17.5013 32.1772 17.4155C30.4473 17.4155 29.2363 18.7882 29.1498 20.8472C29.1498 23.2493 29.1498 25.6514 29.1498 28.0536C29.1498 30.5415 28.1983 31.8284 26.2954 31.8284C24.3924 31.8284 23.3544 30.5415 23.3544 28.0536C23.3544 25.5657 23.3544 23.0777 23.3544 20.6756C23.3544 18.7024 22.1435 17.3297 20.5 17.3297C18.77 17.3297 17.5591 18.7024 17.5591 20.6756C17.5591 23.3351 17.5591 25.9088 17.5591 28.5683C17.5591 30.6273 16.4346 31.8284 14.6181 31.8284C12.8017 31.8284 11.6772 30.6273 11.6772 28.4825C11.6772 25.823 11.6772 23.2493 11.6772 20.5898C11.6772 18.6166 10.4662 17.2439 8.73629 17.2439C7.00633 17.2439 5.88186 18.6166 5.88186 20.6756C5.88186 23.3351 5.88186 25.9088 5.88186 28.5683C5.88186 30.6273 4.75738 31.8284 2.94093 31.8284C1.21097 31.8284 -1.93338e-08 30.6273 0.0864979 28.6541C0.172996 24.3646 -0.432489 19.9035 0.691983 15.4423C3.02743 5.91954 11.6772 -0.428985 21.7975 -3.03946e-05C31.0527 0.343133 39.097 7.72115 40.654 16.9866C41.0865 19.3029 40.827 21.6193 40.9135 23.5925Z" fill="#506F89"/>
</g>
<defs>
<clipPath id="clip0">
<rect width="41" height="32" fill="white"/>
</clipPath>
</defs>
</svg>
