<svg width="42" height="46" viewBox="0 0 42 46" fill="none" xmlns="http://www.w3.org/2000/svg">
<path d="M13.2632 23.054L26.8498 36.6596L35.3684 28.1291C36.878 26.6174 39.3582 26.6174 40.8678 28.1291C42.3774 29.6408 42.3774 32.1244 40.8678 33.6362L29.5456 44.8662C28.0359 46.3779 25.5558 46.3779 24.0462 44.8662L7.7638 28.561V38.2793C7.7638 40.439 6.03851 42.1667 3.8819 42.1667C1.72529 42.1667 0 40.439 0 38.2793V7.82864C0 5.66901 1.72529 3.94131 3.8819 3.94131C6.03851 3.94131 7.7638 5.66901 7.7638 7.82864V17.5469L24.0462 1.1338C25.5558 -0.377934 28.0359 -0.377934 29.5456 1.1338L40.8678 12.4718C42.3774 13.9836 42.3774 16.4671 40.8678 17.9789C39.3582 19.4906 36.878 19.4906 35.3684 17.9789L26.8498 9.44836L13.2632 23.054ZM26.8498 19.1667C29.0064 19.1667 30.7317 20.8944 30.7317 23.054C30.7317 25.2136 29.0064 26.9413 26.8498 26.9413C24.6932 26.9413 22.9679 25.2136 22.9679 23.054C22.9679 20.8944 24.6932 19.1667 26.8498 19.1667Z" fill="#0093DD"/>
</svg>
