<svg width="36" height="36" viewBox="0 0 36 36" fill="none" xmlns="http://www.w3.org/2000/svg">
<g clip-path="url(#clip0)">
<path d="M13.5 0.0999864C19.2 0.0999864 24.8 -1.35638e-05 30.4 0.0999864C33 0.199986 35 2.59999 35.1 5.29999C35.1 5.79999 35.1 6.19999 35.1 6.69999C35.1 11.6 35.1 16.5 35.1 21.6C27.9 21.6 20.8 21.6 13.5 21.6C13.5 14.5 13.5 7.39999 13.5 0.0999864Z" fill="#1E2028"/>
<path d="M0.100006 13.4C2.90001 13.4 5.60001 13.4 8.30001 13.4C8.30001 16.2 8.30001 18.9 8.30001 21.7C5.60001 21.7 2.90001 21.7 0.100006 21.7C0.100006 19 0.100006 16.3 0.100006 13.4Z" fill="#23262E"/>
<path d="M21.7 26.7001C21.7 29.5001 21.7 32.2001 21.7 35.0001C18.9 35.0001 16.2 35.0001 13.5 35.0001C13.5 32.2001 13.5 29.5001 13.5 26.7001C16.2 26.7001 18.9 26.7001 21.7 26.7001Z" fill="#23262E"/>
<path d="M0.199987 26.7001C0.599987 26.7001 0.999986 26.6001 1.29999 26.6001C3.59999 26.6001 5.89999 26.6001 8.39999 26.6001C8.39999 29.4001 8.39999 32.1001 8.39999 34.8001C2.99999 36.1001 -0.800013 32.9001 0.199987 26.7001Z" fill="#23262E"/>
<path d="M8.39999 0.200039C8.39999 2.90004 8.39999 5.60004 8.39999 8.30004C5.59999 8.30004 3 8.30004 0.299995 8.30004C-0.800005 3.80004 1.2 -0.999961 8.39999 0.200039Z" fill="#23262E"/>
<path d="M26.8 35C26.8 32.2 26.8 29.6 26.8 26.8C29.5 26.8 32.2 26.8 34.9 26.8C36 31.3 34 35.9 26.8 35Z" fill="#23262E"/>
</g>
<defs>
<clipPath id="clip0">
<rect width="35.2" height="35.1" fill="white"/>
</clipPath>
</defs>
</svg>
