<?xml version="1.0" standalone="no"?>
<!DOCTYPE svg PUBLIC "-//W3C//DTD SVG 20010904//EN"
 "http://www.w3.org/TR/2001/REC-SVG-20010904/DTD/svg10.dtd">
<svg version="1.0" xmlns="http://www.w3.org/2000/svg"
 width="512.000000pt" height="512.000000pt" viewBox="0 0 512.000000 512.000000"
 preserveAspectRatio="xMidYMid meet">

<g transform="translate(0.000000,512.000000) scale(0.100000,-0.100000)"
fill="#000000" stroke="none">
<path d="M70 4153 c-81 -30 -90 -157 -14 -192 35 -16 4973 -16 5008 0 60 28
71 122 20 170 l-26 24 -2486 2 c-1368 1 -2494 -1 -2502 -4z"/>
<path d="M63 2655 c-33 -14 -63 -59 -63 -95 0 -37 30 -81 65 -96 52 -21 4938
-21 4990 0 35 15 65 59 65 96 0 37 -30 81 -65 96 -51 21 -4943 20 -4992 -1z"/>
<path d="M53 1158 c-57 -28 -67 -122 -17 -169 l26 -24 2498 0 2498 0 26 24
c51 48 40 142 -20 170 -34 15 -4979 15 -5011 -1z"/>
</g>
</svg>
