<svg width="48" height="48" viewBox="0 0 48 48" fill="none" xmlns="http://www.w3.org/2000/svg">
<path d="M48 24C48 37.2548 37.2548 48 24 48C10.7452 48 0 37.2548 0 24C0 10.7452 10.7452 0 24 0C37.2548 0 48 10.7452 48 24Z" fill="white"/>
<path fill-rule="evenodd" clip-rule="evenodd" d="M47.8861 26.3533L46.8908 26.2565C46.963 25.5143 47 24.7616 47 24C47 23.2384 46.963 22.4857 46.8908 21.7435L47.8861 21.6467C47.9614 22.4209 48 23.206 48 24C48 24.794 47.9614 25.5791 47.8861 26.3533ZM46.9725 17.0308L46.0154 17.3208C45.5749 15.8667 44.9942 14.4734 44.2889 13.1566L45.1704 12.6845C45.9064 14.0587 46.5126 15.513 46.9725 17.0308ZM42.553 8.77433L41.7803 9.40915C40.8237 8.24492 39.7551 7.17625 38.5908 6.21969L39.2257 5.44704C40.4402 6.44494 41.5551 7.55977 42.553 8.77433ZM35.3155 2.82963L34.8434 3.71114C33.5266 3.00583 32.1333 2.42509 30.6792 1.98456L30.9692 1.02752C32.487 1.48738 33.9413 2.09355 35.3155 2.82963ZM26.3533 0.113912L26.2565 1.10921C25.5143 1.03699 24.7616 1 24 1C23.2384 1 22.4857 1.03699 21.7435 1.10921L21.6467 0.113912C22.4209 0.0385608 23.206 0 24 0C24.794 0 25.5791 0.0385607 26.3533 0.113912ZM17.0308 1.02752L17.3208 1.98456C15.8667 2.42509 14.4734 3.00583 13.1566 3.71114L12.6845 2.82962C14.0587 2.09355 15.513 1.48738 17.0308 1.02752ZM8.77433 5.44704L9.40915 6.21969C8.24492 7.17625 7.17625 8.24492 6.21969 9.40915L5.44704 8.77433C6.44494 7.55977 7.55977 6.44494 8.77433 5.44704ZM2.82962 12.6845L3.71114 13.1566C3.00583 14.4734 2.42509 15.8667 1.98456 17.3208L1.02752 17.0308C1.48738 15.513 2.09355 14.0587 2.82962 12.6845ZM0.113912 21.6467C0.0385607 22.4209 0 23.206 0 24C0 24.794 0.0385608 25.5791 0.113912 26.3533L1.10921 26.2565C1.03699 25.5143 1 24.7616 1 24C1 23.2384 1.03699 22.4857 1.10921 21.7435L0.113912 21.6467ZM1.02752 30.9692L1.98456 30.6792C2.42509 32.1333 3.00583 33.5266 3.71114 34.8434L2.82963 35.3155C2.09355 33.9413 1.48738 32.487 1.02752 30.9692ZM5.44704 39.2257L6.21969 38.5908C7.17625 39.7551 8.24492 40.8238 9.40915 41.7803L8.77433 42.553C7.55977 41.5551 6.44494 40.4402 5.44704 39.2257ZM12.6845 45.1704L13.1566 44.2889C14.4734 44.9942 15.8667 45.5749 17.3208 46.0154L17.0308 46.9725C15.513 46.5126 14.0587 45.9064 12.6845 45.1704ZM21.6467 47.8861L21.7435 46.8908C22.4857 46.963 23.2384 47 24 47C24.7616 47 25.5143 46.963 26.2565 46.8908L26.3533 47.8861C25.5791 47.9614 24.794 48 24 48C23.206 48 22.4209 47.9614 21.6467 47.8861ZM30.9692 46.9725L30.6792 46.0154C32.1333 45.5749 33.5266 44.9942 34.8434 44.2889L35.3155 45.1704C33.9413 45.9064 32.487 46.5126 30.9692 46.9725ZM39.2257 42.553L38.5908 41.7803C39.7551 40.8237 40.8238 39.7551 41.7803 38.5908L42.553 39.2257C41.5551 40.4402 40.4402 41.5551 39.2257 42.553ZM45.1704 35.3155L44.2889 34.8434C44.9942 33.5266 45.5749 32.1333 46.0154 30.6792L46.9725 30.9692C46.5126 32.487 45.9064 33.9413 45.1704 35.3155Z" fill="#00C2FF"/>
<path d="M43.5 24C43.5 34.7696 34.7696 43.5 24 43.5C13.2304 43.5 4.5 34.7696 4.5 24C4.5 13.2304 13.2304 4.5 24 4.5C34.7696 4.5 43.5 13.2304 43.5 24Z" fill="#F1FAFF"/>
<path d="M16.168 23.268C16.168 21.192 16.516 19.572 17.212 18.408C17.92 17.232 19.132 16.644 20.848 16.644C22.564 16.644 23.77 17.232 24.466 18.408C25.174 19.572 25.528 21.192 25.528 23.268C25.528 25.368 25.174 27.012 24.466 28.2C23.77 29.376 22.564 29.964 20.848 29.964C19.132 29.964 17.92 29.376 17.212 28.2C16.516 27.012 16.168 25.368 16.168 23.268ZM23.512 23.268C23.512 22.296 23.446 21.474 23.314 20.802C23.194 20.13 22.942 19.584 22.558 19.164C22.174 18.732 21.604 18.516 20.848 18.516C20.092 18.516 19.522 18.732 19.138 19.164C18.754 19.584 18.496 20.13 18.364 20.802C18.244 21.474 18.184 22.296 18.184 23.268C18.184 24.276 18.244 25.122 18.364 25.806C18.484 26.49 18.736 27.042 19.12 27.462C19.516 27.882 20.092 28.092 20.848 28.092C21.604 28.092 22.174 27.882 22.558 27.462C22.954 27.042 23.212 26.49 23.332 25.806C23.452 25.122 23.512 24.276 23.512 23.268Z" fill="#00C2FF"/>
<path d="M27.4292 18.75V16.878H31.1732V30H29.1032V18.75H27.4292Z" fill="#00C2FF"/>
</svg>
