<svg width="48" height="48" viewBox="0 0 48 48" fill="none" xmlns="http://www.w3.org/2000/svg">
<path d="M48 24C48 37.2548 37.2548 48 24 48C10.7452 48 0 37.2548 0 24C0 10.7452 10.7452 0 24 0C37.2548 0 48 10.7452 48 24Z" fill="white"/>
<path fill-rule="evenodd" clip-rule="evenodd" d="M47.8861 26.3533L46.8908 26.2565C46.963 25.5143 47 24.7616 47 24C47 23.2384 46.963 22.4857 46.8908 21.7435L47.8861 21.6467C47.9614 22.4209 48 23.206 48 24C48 24.794 47.9614 25.5791 47.8861 26.3533ZM46.9725 17.0308L46.0154 17.3208C45.5749 15.8667 44.9942 14.4734 44.2889 13.1566L45.1704 12.6845C45.9064 14.0587 46.5126 15.513 46.9725 17.0308ZM42.553 8.77433L41.7803 9.40915C40.8237 8.24492 39.7551 7.17625 38.5908 6.21969L39.2257 5.44704C40.4402 6.44494 41.5551 7.55977 42.553 8.77433ZM35.3155 2.82963L34.8434 3.71114C33.5266 3.00583 32.1333 2.42509 30.6792 1.98456L30.9692 1.02752C32.487 1.48738 33.9413 2.09355 35.3155 2.82963ZM26.3533 0.113912L26.2565 1.10921C25.5143 1.03699 24.7616 1 24 1C23.2384 1 22.4857 1.03699 21.7435 1.10921L21.6467 0.113912C22.4209 0.0385608 23.206 0 24 0C24.794 0 25.5791 0.0385607 26.3533 0.113912ZM17.0308 1.02752L17.3208 1.98456C15.8667 2.42509 14.4734 3.00583 13.1566 3.71114L12.6845 2.82962C14.0587 2.09355 15.513 1.48738 17.0308 1.02752ZM8.77433 5.44704L9.40915 6.21969C8.24492 7.17625 7.17625 8.24492 6.21969 9.40915L5.44704 8.77433C6.44494 7.55977 7.55977 6.44494 8.77433 5.44704ZM2.82962 12.6845L3.71114 13.1566C3.00583 14.4734 2.42509 15.8667 1.98456 17.3208L1.02752 17.0308C1.48738 15.513 2.09355 14.0587 2.82962 12.6845ZM0.113912 21.6467C0.0385607 22.4209 0 23.206 0 24C0 24.794 0.0385608 25.5791 0.113912 26.3533L1.10921 26.2565C1.03699 25.5143 1 24.7616 1 24C1 23.2384 1.03699 22.4857 1.10921 21.7435L0.113912 21.6467ZM1.02752 30.9692L1.98456 30.6792C2.42509 32.1333 3.00583 33.5266 3.71114 34.8434L2.82963 35.3155C2.09355 33.9413 1.48738 32.487 1.02752 30.9692ZM5.44704 39.2257L6.21969 38.5908C7.17625 39.7551 8.24492 40.8238 9.40915 41.7803L8.77433 42.553C7.55977 41.5551 6.44494 40.4402 5.44704 39.2257ZM12.6845 45.1704L13.1566 44.2889C14.4734 44.9942 15.8667 45.5749 17.3208 46.0154L17.0308 46.9725C15.513 46.5126 14.0587 45.9064 12.6845 45.1704ZM21.6467 47.8861L21.7435 46.8908C22.4857 46.963 23.2384 47 24 47C24.7616 47 25.5143 46.963 26.2565 46.8908L26.3533 47.8861C25.5791 47.9614 24.794 48 24 48C23.206 48 22.4209 47.9614 21.6467 47.8861ZM30.9692 46.9725L30.6792 46.0154C32.1333 45.5749 33.5266 44.9942 34.8434 44.2889L35.3155 45.1704C33.9413 45.9064 32.487 46.5126 30.9692 46.9725ZM39.2257 42.553L38.5908 41.7803C39.7551 40.8237 40.8238 39.7551 41.7803 38.5908L42.553 39.2257C41.5551 40.4402 40.4402 41.5551 39.2257 42.553ZM45.1704 35.3155L44.2889 34.8434C44.9942 33.5266 45.5749 32.1333 46.0154 30.6792L46.9725 30.9692C46.5126 32.487 45.9064 33.9413 45.1704 35.3155Z" fill="#00C2FF"/>
<path d="M43.5 24C43.5 34.7696 34.7696 43.5 24 43.5C13.2304 43.5 4.5 34.7696 4.5 24C4.5 13.2304 13.2304 4.5 24 4.5C34.7696 4.5 43.5 13.2304 43.5 24Z" fill="#F1FAFF"/>
<path d="M13.9707 23.268C13.9707 21.192 14.3187 19.572 15.0147 18.408C15.7227 17.232 16.9347 16.644 18.6507 16.644C20.3667 16.644 21.5727 17.232 22.2687 18.408C22.9767 19.572 23.3307 21.192 23.3307 23.268C23.3307 25.368 22.9767 27.012 22.2687 28.2C21.5727 29.376 20.3667 29.964 18.6507 29.964C16.9347 29.964 15.7227 29.376 15.0147 28.2C14.3187 27.012 13.9707 25.368 13.9707 23.268ZM21.3147 23.268C21.3147 22.296 21.2487 21.474 21.1167 20.802C20.9967 20.13 20.7447 19.584 20.3607 19.164C19.9767 18.732 19.4067 18.516 18.6507 18.516C17.8947 18.516 17.3247 18.732 16.9407 19.164C16.5567 19.584 16.2987 20.13 16.1667 20.802C16.0467 21.474 15.9867 22.296 15.9867 23.268C15.9867 24.276 16.0467 25.122 16.1667 25.806C16.2867 26.49 16.5387 27.042 16.9227 27.462C17.3187 27.882 17.8947 28.092 18.6507 28.092C19.4067 28.092 19.9767 27.882 20.3607 27.462C20.7567 27.042 21.0147 26.49 21.1347 25.806C21.2547 25.122 21.3147 24.276 21.3147 23.268Z" fill="#00C2FF"/>
<path d="M25.466 20.118C25.538 19.002 25.964 18.132 26.744 17.508C27.536 16.884 28.544 16.572 29.768 16.572C30.608 16.572 31.334 16.722 31.946 17.022C32.558 17.322 33.02 17.73 33.332 18.246C33.644 18.762 33.8 19.344 33.8 19.992C33.8 20.736 33.602 21.372 33.206 21.9C32.81 22.428 32.336 22.782 31.784 22.962V23.034C32.492 23.25 33.044 23.646 33.44 24.222C33.836 24.786 34.034 25.512 34.034 26.4C34.034 27.108 33.872 27.738 33.548 28.29C33.224 28.842 32.744 29.28 32.108 29.604C31.472 29.916 30.71 30.072 29.822 30.072C28.526 30.072 27.458 29.742 26.618 29.082C25.79 28.41 25.346 27.45 25.286 26.202H27.266C27.314 26.838 27.56 27.36 28.004 27.768C28.448 28.164 29.048 28.362 29.804 28.362C30.536 28.362 31.1 28.164 31.496 27.768C31.892 27.36 32.09 26.838 32.09 26.202C32.09 25.362 31.82 24.768 31.28 24.42C30.752 24.06 29.936 23.88 28.832 23.88H28.364V22.188H28.85C29.822 22.176 30.56 22.014 31.064 21.702C31.58 21.39 31.838 20.898 31.838 20.226C31.838 19.65 31.652 19.194 31.28 18.858C30.908 18.51 30.38 18.336 29.696 18.336C29.024 18.336 28.502 18.51 28.13 18.858C27.758 19.194 27.536 19.614 27.464 20.118H25.466Z" fill="#00C2FF"/>
</svg>
