<svg width="48" height="48" viewBox="0 0 48 48" fill="none" xmlns="http://www.w3.org/2000/svg">
<path d="M48 24C48 37.2548 37.2548 48 24 48C10.7452 48 0 37.2548 0 24C0 10.7452 10.7452 0 24 0C37.2548 0 48 10.7452 48 24Z" fill="white"/>
<path fill-rule="evenodd" clip-rule="evenodd" d="M47.8861 26.3533L46.8908 26.2565C46.963 25.5143 47 24.7616 47 24C47 23.2384 46.963 22.4857 46.8908 21.7435L47.8861 21.6467C47.9614 22.4209 48 23.206 48 24C48 24.794 47.9614 25.5791 47.8861 26.3533ZM46.9725 17.0308L46.0154 17.3208C45.5749 15.8667 44.9942 14.4734 44.2889 13.1566L45.1704 12.6845C45.9064 14.0587 46.5126 15.513 46.9725 17.0308ZM42.553 8.77433L41.7803 9.40915C40.8237 8.24492 39.7551 7.17625 38.5908 6.21969L39.2257 5.44704C40.4402 6.44494 41.5551 7.55977 42.553 8.77433ZM35.3155 2.82963L34.8434 3.71114C33.5266 3.00583 32.1333 2.42509 30.6792 1.98456L30.9692 1.02752C32.487 1.48738 33.9413 2.09355 35.3155 2.82963ZM26.3533 0.113912L26.2565 1.10921C25.5143 1.03699 24.7616 1 24 1C23.2384 1 22.4857 1.03699 21.7435 1.10921L21.6467 0.113912C22.4209 0.0385608 23.206 0 24 0C24.794 0 25.5791 0.0385607 26.3533 0.113912ZM17.0308 1.02752L17.3208 1.98456C15.8667 2.42509 14.4734 3.00583 13.1566 3.71114L12.6845 2.82962C14.0587 2.09355 15.513 1.48738 17.0308 1.02752ZM8.77433 5.44704L9.40915 6.21969C8.24492 7.17625 7.17625 8.24492 6.21969 9.40915L5.44704 8.77433C6.44494 7.55977 7.55977 6.44494 8.77433 5.44704ZM2.82962 12.6845L3.71114 13.1566C3.00583 14.4734 2.42509 15.8667 1.98456 17.3208L1.02752 17.0308C1.48738 15.513 2.09355 14.0587 2.82962 12.6845ZM0.113912 21.6467C0.0385607 22.4209 0 23.206 0 24C0 24.794 0.0385608 25.5791 0.113912 26.3533L1.10921 26.2565C1.03699 25.5143 1 24.7616 1 24C1 23.2384 1.03699 22.4857 1.10921 21.7435L0.113912 21.6467ZM1.02752 30.9692L1.98456 30.6792C2.42509 32.1333 3.00583 33.5266 3.71114 34.8434L2.82963 35.3155C2.09355 33.9413 1.48738 32.487 1.02752 30.9692ZM5.44704 39.2257L6.21969 38.5908C7.17625 39.7551 8.24492 40.8238 9.40915 41.7803L8.77433 42.553C7.55977 41.5551 6.44494 40.4402 5.44704 39.2257ZM12.6845 45.1704L13.1566 44.2889C14.4734 44.9942 15.8667 45.5749 17.3208 46.0154L17.0308 46.9725C15.513 46.5126 14.0587 45.9064 12.6845 45.1704ZM21.6467 47.8861L21.7435 46.8908C22.4857 46.963 23.2384 47 24 47C24.7616 47 25.5143 46.963 26.2565 46.8908L26.3533 47.8861C25.5791 47.9614 24.794 48 24 48C23.206 48 22.4209 47.9614 21.6467 47.8861ZM30.9692 46.9725L30.6792 46.0154C32.1333 45.5749 33.5266 44.9942 34.8434 44.2889L35.3155 45.1704C33.9413 45.9064 32.487 46.5126 30.9692 46.9725ZM39.2257 42.553L38.5908 41.7803C39.7551 40.8237 40.8238 39.7551 41.7803 38.5908L42.553 39.2257C41.5551 40.4402 40.4402 41.5551 39.2257 42.553ZM45.1704 35.3155L44.2889 34.8434C44.9942 33.5266 45.5749 32.1333 46.0154 30.6792L46.9725 30.9692C46.5126 32.487 45.9064 33.9413 45.1704 35.3155Z" fill="#00C2FF"/>
<path d="M43.5 24C43.5 34.7696 34.7696 43.5 24 43.5C13.2304 43.5 4.5 34.7696 4.5 24C4.5 13.2304 13.2304 4.5 24 4.5C34.7696 4.5 43.5 13.2304 43.5 24Z" fill="#F1FAFF"/>
<path d="M14.1201 23.268C14.1201 21.192 14.4681 19.572 15.1641 18.408C15.8721 17.232 17.0841 16.644 18.8001 16.644C20.5161 16.644 21.7221 17.232 22.4181 18.408C23.1261 19.572 23.4801 21.192 23.4801 23.268C23.4801 25.368 23.1261 27.012 22.4181 28.2C21.7221 29.376 20.5161 29.964 18.8001 29.964C17.0841 29.964 15.8721 29.376 15.1641 28.2C14.4681 27.012 14.1201 25.368 14.1201 23.268ZM21.4641 23.268C21.4641 22.296 21.3981 21.474 21.2661 20.802C21.1461 20.13 20.8941 19.584 20.5101 19.164C20.1261 18.732 19.5561 18.516 18.8001 18.516C18.0441 18.516 17.4741 18.732 17.0901 19.164C16.7061 19.584 16.4481 20.13 16.3161 20.802C16.1961 21.474 16.1361 22.296 16.1361 23.268C16.1361 24.276 16.1961 25.122 16.3161 25.806C16.4361 26.49 16.6881 27.042 17.0721 27.462C17.4681 27.882 18.0441 28.092 18.8001 28.092C19.5561 28.092 20.1261 27.882 20.5101 27.462C20.9061 27.042 21.1641 26.49 21.2841 25.806C21.4041 25.122 21.4641 24.276 21.4641 23.268Z" fill="#00C2FF"/>
<path d="M26.7854 27.21C27.9374 26.214 28.8434 25.398 29.5034 24.762C30.1754 24.114 30.7334 23.442 31.1774 22.746C31.6214 22.05 31.8434 21.354 31.8434 20.658C31.8434 19.938 31.6694 19.374 31.3214 18.966C30.9854 18.558 30.4514 18.354 29.7194 18.354C29.0114 18.354 28.4594 18.582 28.0634 19.038C27.6794 19.482 27.4754 20.082 27.4514 20.838H25.4714C25.5074 19.47 25.9154 18.426 26.6954 17.706C27.4874 16.974 28.4894 16.608 29.7014 16.608C31.0094 16.608 32.0294 16.968 32.7614 17.688C33.5054 18.408 33.8774 19.368 33.8774 20.568C33.8774 21.432 33.6554 22.266 33.2114 23.07C32.7794 23.862 32.2574 24.576 31.6454 25.212C31.0454 25.836 30.2774 26.562 29.3414 27.39L28.5314 28.11H34.2374V29.82H25.4894V28.326L26.7854 27.21Z" fill="#00C2FF"/>
</svg>
