<svg width="18" height="31" viewBox="0 0 18 31" fill="none" xmlns="http://www.w3.org/2000/svg">
<g clip-path="url(#clip0_1082_9833)">
<path d="M9.00083 0C4.57797 0 0.980011 3.5889 0.980011 8.00091C0.980011 12.4126 4.57797 15.9999 9.00083 15.9999C13.4235 15.9999 17.0197 12.4126 17.0197 8.00091C17.0197 3.5889 13.4236 0 9.00083 0ZM9.00083 4.68779C10.8313 4.68779 12.3199 6.17477 12.3199 8.00091C12.3199 9.82629 10.8314 11.3121 9.00083 11.3121C7.16996 11.3121 5.67986 9.82632 5.67986 8.00091C5.67986 6.17477 7.16996 4.68779 9.00083 4.68779ZM2.38804 16.2721C1.59449 16.2598 0.814142 16.65 0.361465 17.3697C-0.330322 18.466 0.00107535 19.9128 1.09753 20.6024C2.54785 21.5101 4.12162 22.1542 5.75369 22.5253L1.27136 26.999C0.353758 27.9149 0.354535 29.3982 1.27232 30.3141C1.73233 30.7712 2.33229 31 2.93378 31C3.53465 31 4.13663 30.7709 4.59525 30.3132L8.99893 25.918L13.4065 30.3132C14.3233 31.2288 15.81 31.2288 16.7284 30.3132C17.6464 29.3979 17.6464 27.913 16.7284 26.9991L12.2441 22.5264C13.8767 22.1551 15.451 21.5108 16.9003 20.6024C17.9989 19.9128 18.3308 18.4645 17.6393 17.3697C16.9469 16.2731 15.4973 15.9427 14.3979 16.6335C11.1143 18.694 6.88343 18.6926 3.60087 16.6335C3.22301 16.396 2.80371 16.2786 2.38804 16.2721V16.2721Z" fill="#A5A5A5"/>
</g>
<defs>
<clipPath id="clip0_1082_9833">
<rect width="18" height="31" fill="white"/>
</clipPath>
</defs>
</svg>
