<svg width="86" height="86" viewBox="0 0 86 86" fill="none" xmlns="http://www.w3.org/2000/svg">
<g opacity="0.5">
<path d="M79.8265 32.1445C73.9712 11.9169 52.1483 -0.725357 30.6875 6.39592C11.163 12.8742 0.216253 33.6811 5.91572 53.5901C11.7148 73.8454 33.1558 85.7752 53.298 79.9863C73.9302 74.0567 85.7389 52.762 79.8265 32.1445ZM55.7752 83.8386C33.1648 90.9609 9.11999 78.4371 2.00204 55.8319C-5.13247 33.1699 7.40293 9.10654 30.0414 1.98563C52.6242 -5.11909 76.7258 7.43496 83.825 30.1773C90.8516 52.6875 78.3022 76.7429 55.7752 83.8386Z" fill="#BCBABA"/>
<path d="M37.1063 36.4718C37.4819 37.6646 37.8679 38.8545 38.2294 40.0508C38.3499 40.4537 38.5327 40.615 38.9604 40.4663C40.2145 40.0307 41.4937 39.6634 42.7259 39.1745C44.0724 38.6399 44.7984 37.4421 44.6257 36.007C44.5178 35.1127 44.3084 34.1983 43.9609 33.3717C43.1245 31.3775 41.2818 30.5826 39.2173 31.2162C38.2718 31.5071 37.3365 31.8333 36.3846 32.1026C35.9202 32.2347 35.8249 32.4532 35.972 32.8954C36.3655 34.0827 36.7296 35.2791 37.1066 36.4718H37.1063ZM43.0403 45.9361C42.3449 46.1558 41.6556 46.3959 40.9538 46.5878C40.4908 46.7134 40.3994 46.9356 40.5426 47.3816C41.4412 50.1833 42.3309 52.9887 43.1953 55.8019C43.3626 56.3455 43.6202 56.4089 44.1077 56.2436C45.3157 55.8346 46.5417 55.4818 47.7501 55.0728C50.1752 54.2534 51.3911 52.2823 51.0623 49.7452C50.6094 46.2447 47.8044 44.4392 44.4545 45.4894C43.9825 45.638 43.5116 45.7878 43.0407 45.9365L43.0403 45.9361ZM34.5949 17.1879C36.0504 16.7281 37.3793 16.309 38.8014 15.8594C38.9385 16.2925 39.0619 16.6824 39.1849 17.0723C39.7026 18.7133 40.2433 20.3478 40.7253 21.9999C40.9045 22.6145 41.1685 22.6908 41.7877 22.5929C43.6051 22.3034 45.4441 21.9351 47.2713 21.9503C51.9944 21.9909 55.0846 24.5795 56.1811 29.1857C56.3804 30.0202 56.5556 30.8684 56.6456 31.721C56.878 33.9484 56.0516 35.8026 54.5137 37.3723C54.1518 37.742 53.7752 38.0948 53.3345 38.5254C54.1191 38.5978 54.8119 38.6284 55.4947 38.7299C59.4314 39.3142 62.0062 41.5446 63.3056 45.2784C63.902 46.9878 64.3096 48.7353 64.1977 50.5628C64.0456 53.0661 63.0339 55.1243 61.1557 56.8265C59.039 58.7444 56.5391 59.9166 53.9082 60.8635C53.2877 61.086 53.0985 61.302 53.3269 61.9738C53.8726 63.5766 54.3155 65.2136 54.8285 66.8276C54.9551 67.2276 54.9159 67.4868 54.4997 67.619C53.337 67.9909 52.1707 68.3566 50.8903 68.7606C50.7191 68.217 50.5655 67.7306 50.4119 67.2442C49.9805 65.8764 49.5337 64.5123 49.1251 63.1384C48.9855 62.6672 48.7937 62.4944 48.2926 62.6773C47.5159 62.9592 46.7202 63.1842 45.8496 63.4585C46.5183 65.5783 47.158 67.6049 47.8127 69.6815C46.3787 70.1337 45.0297 70.5604 43.5947 71.0136C42.9421 68.9449 42.3039 66.9194 41.6337 64.7971C38.1107 65.911 34.6729 66.9968 31.187 68.0981C30.4319 65.7015 29.7059 63.4042 28.9533 61.0165C29.9826 60.6899 30.9888 60.3724 32.0396 60.0408C29.475 51.9089 26.9395 43.8671 24.3784 35.7528C23.3557 36.0769 22.3721 36.3869 21.3188 36.7195C20.5712 34.3534 19.8478 32.0572 19.0938 29.6659C22.5218 28.5837 25.9595 27.4979 29.489 26.3825C28.7501 24.0406 28.0407 21.7929 27.3161 19.4952C28.7375 19.047 30.0675 18.6265 31.5 18.1733C32.2044 20.4086 32.9138 22.6523 33.6423 24.964C34.7172 24.6249 35.6907 24.3174 36.739 23.9858C36.027 21.7317 35.3237 19.5042 34.5942 17.1875L34.5949 17.1879Z" fill="#BCBABA"/>
<path d="M60.6531 8.77148C65.1859 10.9838 69.2601 14.1564 72.5953 17.9845C75.9089 21.8364 78.448 26.3626 80.0341 31.2129C81.6371 36.0617 82.1969 41.2485 81.7717 46.3425C81.344 51.4405 79.8859 56.4495 77.5357 60.9973C75.1563 65.5286 71.8833 69.5904 67.9517 72.8608C64.0225 76.1262 59.4566 78.6432 54.5658 80.1027C49.6841 81.5785 44.5213 82.0864 39.4694 81.5734C34.4225 81.0283 29.4908 79.4993 25.085 77.0457C34.1218 81.5288 44.8149 82.333 54.2856 79.2113C59.0087 77.648 63.453 75.2323 67.2422 72.013C71.0394 68.8084 74.1789 64.8449 76.4607 60.4353C78.7707 56.0423 80.2212 51.1956 80.6712 46.2453C81.1371 41.2935 80.5723 36.264 79.147 31.494C76.2791 21.9343 69.5011 13.6207 60.6531 8.77185V8.77148Z" fill="#FEFEFE"/>
<path d="M24.809 77.0623C20.2823 74.8359 16.2176 71.6522 12.8949 67.8126C9.59283 63.9502 7.06776 59.4165 5.49638 54.5615C3.90774 49.7088 3.36453 44.5204 3.80594 39.4279C4.24771 34.33 5.72122 29.3271 8.08512 24.7857C10.4785 20.2606 13.7641 16.2092 17.7048 12.9514C21.6451 9.69748 26.2185 7.19566 31.1147 5.75052C36.0004 4.28846 41.1642 3.79704 46.2151 4.32519C51.2605 4.88683 56.1858 6.42988 60.5855 8.89713C51.5613 4.38639 40.8721 3.54934 31.3913 6.64302C26.6628 8.19113 22.211 10.5939 18.4127 13.8007C14.6055 16.9937 11.4534 20.9482 9.15897 25.3506C6.835 29.7371 5.3694 34.5787 4.90389 39.5276C4.42291 44.4783 4.97368 49.5089 6.38352 54.2843C9.22265 63.8512 15.9751 72.1865 24.809 77.0619V77.0623Z" fill="#C8C8C9"/>
<path d="M21.3191 36.7191C21.0968 36.1424 20.8849 35.5635 20.6755 34.9827C20.4687 34.4024 20.2492 33.826 20.051 33.2417L18.848 29.7426L18.7656 29.5039L19.0157 29.42C22.4638 28.2665 25.9282 27.1706 29.4116 26.138L29.2443 26.4581L28.2493 22.9857L27.7744 21.2431C27.6161 20.6613 27.4611 20.0795 27.3164 19.4941C27.5334 20.0569 27.7417 20.6221 27.9446 21.1884L28.5565 22.8892L29.7329 26.3044L29.8142 26.542L29.5652 26.6259C26.1196 27.7815 22.6552 28.8749 19.1718 29.9114L19.3391 29.5874L20.3607 33.1427C20.5349 33.7345 20.6856 34.334 20.8493 34.9284C21.0119 35.5239 21.1705 36.1197 21.3191 36.7191Z" fill="#FEFEFE"/>
<path d="M31.1878 68.0972C30.7626 66.9326 30.3629 65.7614 29.9528 64.5931C29.538 63.4256 29.1596 62.2472 28.7613 61.0761L28.6966 60.8867L28.893 60.8208L31.9631 59.7933L31.7944 60.1173L29.8424 54.0567C29.1912 52.0373 28.5836 50.0028 27.9516 47.9773C27.3144 45.9525 26.7191 43.9159 26.1201 41.8785C25.5121 39.8451 24.9398 37.8008 24.3789 35.752C25.0959 37.7512 25.8017 39.7536 26.4705 41.768C27.1482 43.7798 27.8285 45.7901 28.4692 47.8135C29.1139 49.8354 29.7827 51.8494 30.4086 53.8777L32.2869 59.9621L32.3642 60.2124L32.1181 60.2862L29.015 61.2082L29.1484 60.9529C29.4934 62.1417 29.8589 63.3255 30.1888 64.5179C30.5241 65.7106 30.8691 66.8994 31.1878 68.0972Z" fill="#FEFEFE"/>
<path d="M44.1074 56.2424C44.7586 55.9655 45.4209 55.7257 46.077 55.4651L48.0632 54.7475C49.2943 54.2727 50.2652 53.1778 50.6573 51.9267C51.0635 50.6656 50.8567 49.2597 50.2854 48.0313C50.0037 47.4153 49.6015 46.854 49.0964 46.3917C48.6075 45.9089 48.0049 45.5395 47.3423 45.2969C48.7474 45.537 50.0012 46.5314 50.7005 47.8167C51.4161 49.0804 51.6891 50.6656 51.2362 52.1107C50.7728 53.5317 49.6572 54.7562 48.2067 55.1904C46.8473 55.5716 45.4881 55.9374 44.1078 56.242L44.1074 56.2424Z" fill="#FEFEFE"/>
<path d="M39.1162 40.4154C40.1771 39.9506 41.2916 39.5316 42.3424 39.1352C43.308 38.6794 43.9847 37.6987 44.1876 36.6521C44.411 35.5954 44.1469 34.4639 43.6649 33.4645C43.1659 32.4737 42.3867 31.5873 41.3679 31.0195C42.4845 31.3763 43.4555 32.2033 44.071 33.242C44.6801 34.2709 45.0265 35.5296 44.7815 36.7702C44.5391 37.991 43.7181 39.1276 42.5227 39.5773C41.3765 39.9251 40.266 40.1728 39.1162 40.4154Z" fill="#FEFEFE"/>
<path d="M41.6343 64.7969C42.1905 65.7621 42.5685 66.7806 42.9049 67.8146C43.2233 68.8536 43.4974 69.9053 43.5953 71.0138C43.0395 70.05 42.661 69.03 42.3261 67.9975C42.0088 66.9574 41.7332 65.9058 41.6343 64.7969Z" fill="#FEFEFE"/>
<path d="M48.7769 62.6328C49.3301 63.5905 49.7057 64.604 50.0406 65.6315C50.3568 66.664 50.631 67.7106 50.7249 68.813C50.1701 67.8554 49.7946 66.8419 49.4607 65.8144C49.146 64.7818 48.8718 63.7352 48.7769 62.6328Z" fill="#FEFEFE"/>
</g>
</svg>
