<svg width="137" height="23" viewBox="0 0 137 23" fill="none"
    xmlns="http://www.w3.org/2000/svg">
    <path d="M5.22828 2.20178C6.00455 1.81161 6.86448 1.50382 7.80819 1.27875C8.75179 1.05368 9.79447 0.941095 10.9361 0.941095H17.6485C17.7399 0.941095 17.7854 0.978625 17.7854 1.05368V5.10612C17.7854 5.19628 17.7398 5.24113 17.6485 5.24113H10.5709C9.80979 5.24113 9.13249 5.31631 8.53886 5.46631L5.22828 2.20178V2.20178ZM0 11.1172C0.0304016 10.6069 0.0761184 10.1191 0.136922 9.65376C0.943594 10.4342 1.73129 11.2071 2.49991 11.9726C3.26852 12.7381 4.03336 13.496 4.79443 14.2465C5.09879 14.9669 5.51367 15.5748 6.03884 16.0701C6.5639 16.5656 7.16884 16.9633 7.85391 17.2634C8.35622 17.7437 8.83945 18.2164 9.3037 18.6818C9.76796 19.1471 10.2207 19.5972 10.6621 20.0325L12.7169 22.0588H11.0959C10.7764 21.7586 10.4452 21.4359 10.1027 21.0907C9.7603 20.7456 9.39879 20.3854 9.0182 20.01C7.73962 18.7643 6.33177 17.3834 4.79443 15.8675C3.2572 14.3516 1.65895 12.7682 0 11.1172H0ZM0 12.0177C1.58294 13.5786 3.10508 15.0757 4.56619 16.5092C6.02741 17.9426 7.35914 19.2596 8.5616 20.4603C8.85088 20.7456 9.12849 21.0156 9.39491 21.2708C9.66132 21.526 9.92385 21.7811 10.1826 22.0362C9.87825 22.0212 9.58897 21.9987 9.31502 21.9687C9.04094 21.9386 8.77464 21.9011 8.51589 21.8561C8.27233 21.631 8.025 21.3908 7.77391 21.1357C7.52281 20.8806 7.26028 20.618 6.98621 20.3478C6.0121 19.3873 4.95044 18.3403 3.80135 17.2072C2.65226 16.0741 1.44591 14.892 0.182638 13.6613C0.136922 13.3911 0.0988625 13.1172 0.0684608 12.8395C0.0380592 12.5618 0.0152008 12.2879 0 12.0178L0 12.0177ZM13.4476 17.8037L15.2512 19.5823C15.3729 19.7023 15.491 19.8149 15.6051 19.9199C15.7192 20.025 15.8297 20.1375 15.9361 20.2576L16.5754 20.888C16.6363 20.9481 16.6895 21.0042 16.7352 21.0569C16.7809 21.1094 16.8342 21.1581 16.895 21.2031C16.9407 21.2632 16.9902 21.3156 17.0433 21.3607C17.0967 21.4058 17.1461 21.4507 17.1918 21.4957L17.7397 22.036C17.7244 22.036 17.713 22.0397 17.7054 22.0473C17.6978 22.0548 17.6788 22.0586 17.6483 22.0586H15.8446L11.5295 17.8035H13.4474L13.4476 17.8037ZM8.94985 17.6011C9.49777 17.7361 10.0837 17.8037 10.7078 17.8037H10.9133C11.248 18.1188 11.5678 18.4266 11.8722 18.7267C12.1765 19.0269 12.481 19.3271 12.7854 19.6272C13.2268 20.0625 13.653 20.4865 14.064 20.8992C14.4748 21.312 14.8706 21.6985 15.2511 22.0587H13.4703L8.94974 17.601L8.94985 17.6011ZM3.78992 3.1247C4.23131 2.77949 4.70311 2.47925 5.20542 2.22421L8.516 5.48874C7.92237 5.63886 7.38211 5.87148 6.895 6.1867C6.84928 6.17171 6.81888 6.14162 6.80357 6.09666L3.78992 3.12481V3.1247ZM1.57528 17.3759C1.34693 17.0007 1.14532 16.6142 0.970224 16.2164C0.795243 15.8187 0.646892 15.4097 0.525057 14.9894C1.621 16.0701 2.66734 17.1057 3.66443 18.0963C4.66139 19.0869 5.59356 20.0099 6.46115 20.8655C6.58287 20.9855 6.70471 21.1018 6.82643 21.2144C6.94815 21.3269 7.06998 21.4433 7.1917 21.5633C6.75031 21.4433 6.33177 21.3006 5.93598 21.1355C5.5403 20.9704 5.16736 20.7829 4.81729 20.5727L1.57528 17.3758V17.3759ZM0.251099 9.02331C0.296816 8.78314 0.350076 8.5468 0.410879 8.31418C0.471797 8.08157 0.540258 7.85267 0.616376 7.62749C1.25572 8.25795 1.87976 8.87702 2.48859 9.48493C3.09742 10.0927 3.70626 10.6969 4.31509 11.2973C4.31509 11.6274 4.32275 11.9465 4.33795 12.254C4.35315 12.5617 4.39887 12.8732 4.47487 13.1883L0.251099 9.02331V9.02331ZM2.55717 4.27302C2.72449 4.07793 2.90336 3.894 3.09365 3.72146C3.28383 3.5488 3.4779 3.37997 3.67586 3.21497C4.17817 3.7103 4.68414 4.20551 5.19411 4.70084C5.70396 5.19628 6.21016 5.69149 6.71248 6.18682L6.78105 6.25444C6.33954 6.55456 5.95906 6.90732 5.6395 7.3126C5.42635 7.10241 5.21708 6.89605 5.01158 6.69341C4.80609 6.49078 4.59682 6.28442 4.38378 6.07434C3.79015 5.45899 3.18131 4.85862 2.55728 4.27325L2.55717 4.27302ZM0.77627 7.19978C0.958909 6.74943 1.16441 6.32161 1.39276 5.91644C1.45368 5.97651 1.51071 6.03264 1.56397 6.08527C1.61734 6.13779 1.67426 6.20147 1.73518 6.27664C2.22229 6.75698 2.71317 7.2372 3.20783 7.71754C3.7026 8.19787 4.19337 8.6781 4.68048 9.15844C4.51304 9.68363 4.40652 10.209 4.36092 10.7343L0.776385 7.19978H0.77627ZM1.55254 5.62376C1.8113 5.20349 2.10046 4.81332 2.42013 4.45312L4.22389 6.23167C4.43693 6.44175 4.65008 6.65194 4.86312 6.86202C5.07627 7.07221 5.28931 7.28228 5.50247 7.49247C5.2284 7.86766 4.99261 8.31046 4.79454 8.82078C4.32275 8.35543 3.85472 7.89392 3.39047 7.43612C2.92621 6.97832 2.4583 6.50937 1.98639 6.02903C1.91027 5.95397 1.83804 5.88647 1.76947 5.8264C1.70089 5.76633 1.62866 5.69893 1.55254 5.62376V5.62376ZM15.959 17.8037L17.7855 19.6048V21.631C17.7246 21.5709 17.6677 21.5109 17.6143 21.4509C17.5611 21.3908 17.4965 21.3308 17.4203 21.2708C17.3747 21.2258 17.3289 21.177 17.2833 21.1245C17.2376 21.072 17.1844 21.0233 17.1236 20.9782C17.0778 20.9181 17.0283 20.8657 16.9752 20.8206C16.9218 20.7755 16.8649 20.723 16.804 20.6631L13.9044 17.8038H15.9591L15.959 17.8037ZM17.7855 19.2671C17.542 19.027 17.2946 18.7868 17.0435 18.5468C16.7924 18.3066 16.5375 18.0589 16.2788 17.8038H17.6486C17.74 17.8038 17.7855 17.8413 17.7855 17.9163V19.2671V19.2671ZM20.6167 15.9801C21.3319 16.7455 22.0398 17.4809 22.74 18.1864C23.4402 18.8917 24.1403 19.5972 24.8405 20.3027V21.6985C24.2012 21.053 23.5164 20.3853 22.7857 19.6947C22.0551 19.0043 21.332 18.2764 20.6168 17.5109V15.9801H20.6167ZM20.6167 13.5936C21.3319 14.299 22.0398 14.9933 22.74 15.6761C23.4402 16.3591 24.1403 17.0532 24.8405 17.7587V19.4023C24.1403 18.6969 23.4402 17.9952 22.74 17.2972C22.0398 16.5993 21.332 15.8676 20.6167 15.1022V13.5938V13.5936ZM33.5848 9.3835C33.8435 9.3835 34.0719 9.32726 34.2697 9.21467C34.4676 9.1022 34.6731 8.94825 34.8862 8.75316C35.1298 8.51299 35.2933 8.19032 35.3771 7.78505C35.4609 7.37988 35.4495 6.98959 35.3428 6.61441C35.2363 6.23922 35.0385 5.91273 34.7492 5.63503C34.46 5.35733 34.0719 5.21859 33.5849 5.21859H28.1967C28.3794 5.53371 28.5582 5.81896 28.7332 6.07411C28.9083 6.32927 29.0642 6.5469 29.2013 6.727H26.2562L20.6169 1.03103V0.918442H33.3338C34.2927 0.918442 35.2022 1.12863 36.0622 1.5489C36.9222 1.96916 37.6717 2.56198 38.3111 3.32745L38.4709 3.46247C38.8362 3.92781 39.1292 4.45684 39.3499 5.04965C39.5706 5.64258 39.7076 6.26165 39.7609 6.9071C39.8141 7.55254 39.7837 8.20543 39.6695 8.86575C39.5554 9.52618 39.3423 10.1454 39.0302 10.7232C38.7182 11.301 38.3034 11.8189 37.7859 12.2766C37.2684 12.7344 36.6367 13.0908 35.8909 13.346C35.5713 13.4061 35.2554 13.4623 34.9434 13.5148C34.6315 13.5675 34.3003 13.5937 33.9503 13.5937C33.935 13.6087 33.9198 13.6312 33.9046 13.6613C33.8741 13.7364 33.8894 13.8039 33.9503 13.864L34.795 14.967L29.0872 9.38361H33.585L33.5848 9.3835ZM24.4523 6.72689H24.3381C24.2012 6.50171 23.9996 6.18287 23.7332 5.77004C23.4668 5.35733 23.1662 4.89953 22.8313 4.39677C22.4964 3.894 22.1425 3.37242 21.7695 2.83212C21.3967 2.29183 21.0504 1.7814 20.7307 1.30118L26.1416 6.727H24.4522L24.4523 6.72689ZM26.3929 9.3835C27.5496 10.4942 28.7102 11.6161 29.8746 12.7494C31.039 13.8825 32.1731 14.9894 33.2764 16.07C34.38 17.1507 35.4455 18.1975 36.4728 19.2107C37.5002 20.2238 38.4629 21.173 39.361 22.0587H39.2241H37.1692C36.0733 21.038 34.947 19.9425 33.7903 18.7716C32.6335 17.601 31.4006 16.3777 30.0916 15.1019C29.9089 14.8466 29.7415 14.614 29.5893 14.4039C29.437 14.1937 29.2696 13.9611 29.0868 13.7059H28.927H28.5618C27.8464 12.9405 27.1348 12.205 26.4271 11.4996C25.7193 10.7942 24.9773 10.0887 24.2011 9.38328H26.3929V9.3835ZM20.6165 20.9105C20.7383 21.1057 20.8905 21.3007 21.0731 21.4958C21.2558 21.6909 21.4384 21.8786 21.6211 22.0587H20.7306C20.6545 22.0587 20.6165 22.0211 20.6165 21.9462V20.9105ZM20.6165 18.5241C21.1949 19.1544 21.7923 19.7585 22.4088 20.3365C23.0252 20.9143 23.6226 21.4884 24.201 22.0587H22.7855C22.4659 21.6685 22.1233 21.3007 21.758 20.9555C21.3927 20.6103 21.0122 20.2202 20.6165 19.7849V18.5241ZM21.507 9.51863C22.2223 10.2239 22.9302 10.922 23.6303 11.6124C24.3306 12.3029 25.0306 13.0008 25.7309 13.7062H24.9775H24.8405V14.5844C24.1403 13.9539 23.4402 13.2786 22.74 12.5581C22.0398 11.8377 21.332 11.1246 20.6167 10.4193V9.51886V9.38373H21.3928C21.4081 9.38373 21.4385 9.40627 21.4842 9.45135C21.4994 9.48144 21.5071 9.50387 21.5071 9.51897L21.507 9.51863ZM28.927 9.3835L35.0002 15.2146L39.3609 21.9462C37.5649 20.1601 35.5785 18.1976 33.4019 16.0587C31.2253 13.92 28.9726 11.6949 26.6438 9.38339H28.9269L28.927 9.3835ZM20.6165 11.0496C22.032 12.4755 23.44 13.8639 24.8403 15.2146V17.0157C24.14 16.3103 23.44 15.6123 22.7397 14.9219C22.0396 14.2314 21.3318 13.5335 20.6164 12.828V11.0495L20.6165 11.0496ZM30.7764 16.1152C31.8723 17.1959 32.9225 18.2352 33.9271 19.2333C34.9316 20.2314 35.8828 21.1732 36.781 22.0588H34.749H34.6349C34.5588 21.9238 34.4065 21.6836 34.1782 21.3384C33.9499 20.9932 33.6646 20.5579 33.322 20.0326C32.9796 19.5074 32.5877 18.9145 32.1463 18.2541C31.7048 17.5936 31.2482 16.8808 30.7764 16.1153V16.1152ZM24.0869 9.51874C24.8021 10.224 25.5024 10.9221 26.1874 11.6125C26.8723 12.3031 27.5419 13.0009 28.1965 13.7063H26.1416C25.4264 12.9409 24.7186 12.2055 24.0183 11.5C23.3182 10.7946 22.6104 10.0891 21.895 9.38373H23.9497L24.0868 9.51886L24.0869 9.51874ZM56.0276 13.4136C55.3426 12.7382 54.6578 12.0629 53.9729 11.3873C53.2878 10.7119 52.5954 10.0291 51.8951 9.33865C52.0626 9.35363 52.2338 9.36119 52.4088 9.36119C52.5839 9.36119 52.7551 9.36119 52.9224 9.36119C53.9574 9.39116 54.9011 9.31982 55.7535 9.14728C56.6059 8.97462 57.3365 8.66694 57.9453 8.22425C58.5541 7.78144 59.026 7.18108 59.3608 6.42315C59.6957 5.66523 59.8631 4.71594 59.8631 3.57517V1.05368C59.8631 0.978512 59.9013 0.941095 59.9773 0.941095H64.064C64.1403 0.941095 64.1782 0.986176 64.1782 1.07622V3.37264C64.1782 5.12866 63.9498 6.60708 63.4933 7.80781C63.0365 9.00854 62.4315 9.99919 61.6782 10.7797C60.9248 11.5601 60.0571 12.1529 59.0754 12.5582C58.0936 12.9635 57.0777 13.2486 56.0274 13.4137L56.0276 13.4136ZM41.7581 4.00287C41.7428 3.89795 41.7353 3.7928 41.7353 3.68776C41.7353 3.58272 41.7353 3.47013 41.7353 3.3501V1.8417C42.5267 2.60717 43.3258 3.39135 44.1326 4.19436C44.9392 4.99736 45.7611 5.80408 46.5983 6.61464C46.8266 7.15493 47.1233 7.5939 47.4887 7.93156C47.854 8.26933 48.2727 8.54319 48.7445 8.75338L49.0869 9.09104C50.1067 10.0967 51.1189 11.0911 52.1235 12.074C53.128 13.0571 54.1174 14.029 55.0915 14.9895V17.1734C53.7674 15.8676 52.4088 14.5243 51.0161 13.1435C49.6235 11.7626 48.2117 10.3667 46.7809 8.95591C45.9285 8.11538 45.0838 7.28228 44.2467 6.45696C43.4095 5.63142 42.58 4.81343 41.7581 4.00287V4.00287ZM41.7581 4.34053C42.5648 5.13609 43.3677 5.93155 44.1667 6.727C44.9659 7.52245 45.7764 8.32545 46.5983 9.13601C48.0747 10.5769 49.5245 11.999 50.9477 13.4023C52.3708 14.8057 53.7522 16.1677 55.0917 17.4886V19.5149L50.8222 15.3049V13.6388C50.8222 13.5637 50.7841 13.5262 50.7081 13.5262C50.358 13.4812 50.0116 13.4286 49.6692 13.3686C49.3268 13.3086 48.9805 13.2336 48.6304 13.1436L42.1007 6.70457C42.0244 6.34437 41.9561 5.96919 41.8952 5.57901C41.8343 5.18873 41.7887 4.77601 41.7582 4.34064L41.7581 4.34053ZM49.0413 8.86575C49.4675 9.01587 49.9165 9.12474 50.3882 9.19213C50.8601 9.25975 51.3471 9.30844 51.8494 9.33853C52.5497 10.0289 53.246 10.7118 53.9386 11.3872C54.6312 12.0628 55.3198 12.7381 56.0049 13.4135C55.8678 13.4436 55.7308 13.4623 55.5939 13.4699C55.4569 13.4773 55.3274 13.4961 55.2057 13.5261C55.1296 13.5261 55.0917 13.5637 55.0917 13.6387V14.8319L49.0414 8.86575H49.0413ZM41.7353 1.05357C41.7353 0.978399 41.7809 0.940982 41.8722 0.940982H43.3334C43.7748 1.37635 44.2276 1.81904 44.6919 2.26929C45.1562 2.71953 45.6241 3.17733 46.096 3.64257V3.68765C46.096 4.22794 46.1303 4.71583 46.1986 5.15108C46.2672 5.58634 46.3623 5.98407 46.4841 6.34426L41.7352 1.66137V1.05357H41.7353ZM50.8221 15.7774C51.583 16.5128 52.3137 17.2296 53.0138 17.9275C53.714 18.6254 54.4065 19.3046 55.0915 19.965V21.8561C54.437 21.2107 53.7559 20.5429 53.0481 19.8524C52.3403 19.162 51.5983 18.434 50.8221 17.6686V15.7774V15.7774ZM42.2603 7.3348C42.5647 7.63493 42.8767 7.93888 43.1964 8.24656C43.5159 8.55413 43.8281 8.8582 44.1324 9.15832C44.7869 9.80365 45.4338 10.4417 46.073 11.0719C46.7122 11.7023 47.3516 12.3327 47.9908 12.9631C47.3516 12.7679 46.739 12.5128 46.153 12.1977C45.5669 11.8826 45.0267 11.496 44.5319 11.0382C44.0372 10.5804 43.596 10.0477 43.2078 9.43974C42.8197 8.83182 42.5038 8.13025 42.2603 7.3348V7.3348ZM50.8221 18.2538C51.5222 18.9293 52.1918 19.5859 52.8312 20.2238C53.4704 20.8617 54.0869 21.4733 54.6806 22.0587H52.9225C52.5878 21.7286 52.2452 21.3945 51.8951 21.0569C51.5451 20.7191 51.1873 20.37 50.8221 20.0099V18.2538ZM45.9591 0.940869C46.0504 0.940869 46.096 0.978399 46.096 1.05346V3.59749C45.6241 3.14713 45.1637 2.7006 44.7146 2.25791C44.2657 1.8151 43.8204 1.37613 43.3791 0.940869H45.9591ZM50.8221 20.7304C51.0504 20.9705 51.2787 21.1994 51.507 21.4172C51.7354 21.6348 51.9561 21.8487 52.1692 22.0588H50.9591C50.8678 22.0588 50.8222 22.0063 50.8222 21.9012V20.7305L50.8221 20.7304ZM71.3474 5.19605C70.6168 4.47566 69.8938 3.76259 69.1785 3.0573C68.4631 2.3519 67.7553 1.66137 67.055 0.98595C67.0704 0.955971 67.1084 0.940869 67.1692 0.940869H79.8404C80.845 0.940869 81.7849 1.16977 82.6601 1.62756C83.5354 2.08547 84.2773 2.69711 84.8862 3.46247C85.4341 4.15299 85.8183 4.98214 86.0392 5.95025C86.2599 6.91837 86.2788 7.88265 86.0962 8.84332C85.9135 9.80388 85.5179 10.6895 84.909 11.5C84.3002 12.3105 83.4402 12.9034 82.3291 13.2786C81.5071 13.4587 80.6853 13.5713 79.8633 13.6163C79.1631 12.9071 78.4554 12.1979 77.74 11.4888C77.0246 10.7797 76.3016 10.0629 75.571 9.33876H79.9775C80.5406 9.33876 80.982 9.15866 81.3015 8.80218C81.5756 8.51693 81.7506 8.17173 81.8267 7.75901C81.9028 7.35002 81.8837 6.95229 81.7696 6.57327C81.6555 6.19437 81.45 5.86798 81.1531 5.59772C80.8562 5.3313 80.4643 5.19628 79.9773 5.19628H71.3472L71.3474 5.19605ZM75.5254 9.33853L79.8178 13.6161C79.7113 13.6161 79.6123 13.6199 79.5209 13.6274C79.4295 13.6349 79.3307 13.6387 79.224 13.6387H77.5116C76.7963 12.9333 76.0809 12.224 75.3655 11.5112C74.6502 10.7983 73.9272 10.0816 73.1966 9.36119L75.5254 9.33865V9.33853ZM73.014 9.33853C73.7445 10.0626 74.4676 10.7831 75.1829 11.4998C75.8983 12.2164 76.6136 12.9294 77.329 13.6386H75.1372L70.8221 9.36096L73.0139 9.33842L73.014 9.33853ZM68.4249 9.33853H70.4798L74.7949 13.6386H72.7629L68.4249 9.33853ZM67.0094 9.47355C67.0094 9.38339 67.055 9.33853 67.1464 9.33853H67.9682C68.6988 10.0626 69.4219 10.7831 70.1373 11.4998C70.8525 12.2164 71.568 12.9294 72.2833 13.6386H71.4385C71.3472 13.6386 71.3016 13.6761 71.3016 13.751V14.5391L67.0093 10.2877V9.47344L67.0094 9.47355ZM67.0094 10.8995L71.3017 15.1433V16.8806L67.0094 12.6366V10.8995ZM67.0094 1.03092L67.0323 1.00838L71.3017 5.19594H68.9729L67.0094 3.28226V1.076V1.03092V1.03092ZM67.0094 13.3909L71.3017 17.6235V19.2219C70.6167 18.5465 69.9166 17.8598 69.2012 17.1619C68.4859 16.4639 67.7552 15.7398 67.0094 14.9893V13.3909ZM67.0094 15.8898C67.7704 16.6253 68.5049 17.3458 69.2126 18.0511C69.9205 18.7565 70.6167 19.4395 71.3017 20.0999V21.5859L67.0094 17.3532V15.8898ZM67.0094 18.3664L70.7538 22.0587H69.4068L67.0096 19.6947V18.3665L67.0094 18.3664ZM67.1464 5.19594C67.0549 5.19594 67.0094 5.15841 67.0094 5.08335V3.46236L68.7902 5.19594H67.1464V5.19594ZM67.0094 20.8429L68.2423 22.0587H67.1692C67.0627 22.0587 67.0094 22.0061 67.0094 21.9011V20.8429ZM96.0507 21.4283C96.1724 21.5332 96.2828 21.6384 96.3818 21.7434C96.4807 21.8485 96.591 21.9535 96.7128 22.0586H96.2103C96.1039 22.0586 96.0506 22.006 96.0506 21.901V21.4282L96.0507 21.4283ZM97.4434 22.0587L96.0507 20.6854V18.9293L99.2242 22.0587H97.4434ZM96.0507 16.4527L100.411 20.7528V21.901C100.411 22.006 100.358 22.0586 100.252 22.0586H99.8407C99.2623 21.4883 98.6572 20.8954 98.0256 20.28C97.3939 19.6646 96.7356 19.0192 96.0507 18.3439V16.4526V16.4527ZM96.0507 11.2972V9.00076C96.0964 9.04573 96.1421 9.09081 96.1877 9.13578C96.2333 9.18086 96.279 9.21839 96.3246 9.24826L100.411 13.3008V15.5972L96.0507 11.2972V11.2972ZM96.0507 13.6386V11.4773L100.411 15.7773V17.9386L96.0507 13.6386ZM96.0507 13.9762C96.8117 14.7116 97.5538 15.4397 98.2767 16.1601C98.9997 16.8804 99.7113 17.5784 100.411 18.2538V20.2801C99.7264 19.6047 99.0225 18.9143 98.2995 18.2088C97.5766 17.5035 96.8268 16.7679 96.0506 16.0025V13.9762H96.0507ZM87.4432 2.98957L89.6579 5.1734H87.6031C87.4966 5.1734 87.4432 5.12077 87.4432 5.01584V2.98957V2.98957ZM87.4432 2.80947V1.09843C87.4738 0.993502 87.527 0.940869 87.6031 0.940869H87.8771L92.1694 5.17351H89.8405L87.4432 2.80958V2.80947ZM87.9228 0.940757H108.699C108.806 0.970848 108.859 1.02337 108.859 1.09831V5.01573C108.859 5.12065 108.806 5.17329 108.699 5.17329H100.549C100.457 5.17329 100.411 5.21082 100.411 5.28576V13.2556L96.0508 8.95557V5.28576C96.0508 5.2107 96.0127 5.17329 95.9367 5.17329H92.2151L87.9229 0.940644L87.9228 0.940757ZM116.165 1.86379C116.896 1.53368 117.691 1.30095 118.551 1.16582C119.411 1.03081 120.237 0.963185 121.028 0.963185H125.229C126.827 0.963185 128.292 1.20335 129.624 1.68358C130.956 2.16391 132.109 2.85805 133.083 3.7662C134.057 4.67413 134.814 5.78109 135.355 7.08686C135.895 8.39262 136.165 9.8635 136.165 11.4996C136.165 12.8204 135.952 14.1261 135.526 15.4169C135.1 16.7077 134.407 17.8709 133.448 18.9066L130.366 15.8671C130.853 15.342 131.23 14.7152 131.496 13.9873C131.762 13.2593 131.88 12.4301 131.85 11.4995C131.835 10.6289 131.702 9.81459 131.45 9.05666C131.199 8.29874 130.815 7.63831 130.297 7.07547C129.78 6.51264 129.133 6.06983 128.357 5.74728C127.581 5.42461 126.66 5.26311 125.594 5.26311H120.686C120.32 5.26311 119.978 5.28565 119.658 5.33073L116.165 1.86356L116.165 1.86379ZM110.092 11.4997C110.092 11.3797 110.092 11.2708 110.092 11.1732C110.092 11.0756 110.1 10.9669 110.115 10.8468C110.328 11.057 110.541 11.2671 110.754 11.4773C110.967 11.6874 111.18 11.8975 111.393 12.1076L121.508 22.0812H120.891C120.724 22.0812 120.568 22.0812 120.423 22.0812C120.278 22.0812 120.13 22.0737 119.978 22.0587C118.593 20.6928 117.105 19.2257 115.514 17.6572C113.924 16.0888 112.299 14.4865 110.64 12.8506L110.115 12.3328C110.1 12.1828 110.092 12.0401 110.092 11.905C110.092 11.77 110.092 11.6348 110.092 11.4998V11.4997ZM110.686 15.2144C110.579 14.9291 110.492 14.6441 110.423 14.3589C110.354 14.0736 110.297 13.781 110.252 13.4808C111.774 14.9667 113.262 16.4263 114.715 17.8596C116.169 19.2931 117.543 20.6476 118.836 21.9234C118.76 21.9084 118.684 21.8972 118.608 21.8896C118.532 21.8821 118.456 21.8708 118.38 21.8558C118.151 21.8107 117.931 21.7657 117.718 21.7208C117.504 21.6757 117.291 21.6157 117.078 21.5407C116.013 20.475 114.947 19.4206 113.882 18.3775C112.816 17.3344 111.751 16.28 110.686 15.2144V15.2144ZM122.832 17.826H124.75C125.435 18.5164 126.104 19.1805 126.759 19.8184C127.413 20.4564 128.045 21.0754 128.654 21.6758C128.532 21.7059 128.406 21.7359 128.277 21.766C128.148 21.796 128.015 21.826 127.878 21.856L127.056 21.991L122.832 17.8261L122.832 17.826ZM117.786 5.80363C117.238 5.27844 116.698 4.75302 116.165 4.22772C115.632 3.70241 115.107 3.18454 114.59 2.67434C115.077 2.34412 115.587 2.07398 116.119 1.86379C116.698 2.43417 117.276 3.00445 117.854 3.57483C118.433 4.1451 119.019 4.73048 119.613 5.33084C119.262 5.36082 118.935 5.41717 118.631 5.49967C118.326 5.58228 118.045 5.68349 117.786 5.80352L117.786 5.80363ZM122.238 17.826L126.508 22.036C126.294 22.0661 126.085 22.0811 125.88 22.0811C125.674 22.0811 125.465 22.0811 125.252 22.0811H124.772L120.457 17.826H122.238H122.238ZM122.398 22.0811C121.591 21.2856 120.743 20.4525 119.852 19.5821C118.962 18.7115 118.037 17.8036 117.078 16.858C117.824 17.3083 118.669 17.601 119.613 17.7361L124.019 22.0812H122.398V22.0811ZM125.457 17.826C126.066 17.826 126.614 17.7734 127.101 17.6684L130.503 21.0229C130.275 21.143 130.035 21.2481 129.784 21.338C129.533 21.4282 129.278 21.5106 129.019 21.5858L125.206 17.826H125.458H125.457ZM129.042 16.9255C129.544 16.6254 129.978 16.2801 130.343 15.8898L133.425 18.9291C133.075 19.3194 132.664 19.6872 132.193 20.0323L129.042 16.9255H129.042ZM110.183 10.0363C110.229 9.60102 110.313 9.15066 110.434 8.68542L114.476 12.6703C114.536 13.1507 114.639 13.5934 114.784 13.9987C114.928 14.4039 115.107 14.7791 115.32 15.1243C114.179 13.9837 113.014 12.8353 111.827 11.6797L110.183 10.0362L110.183 10.0363ZM127.352 17.6008C127.915 17.4658 128.441 17.2632 128.928 16.9929L132.101 20.0998C131.721 20.3999 131.264 20.6776 130.731 20.9328C130.168 20.3775 129.609 19.8222 129.053 19.2668C128.498 18.7114 127.931 18.1561 127.352 17.6007L127.352 17.6008ZM113.265 3.68742C113.615 3.37231 114.019 3.05708 114.475 2.74185C115.008 3.26715 115.537 3.78502 116.062 4.29534C116.587 4.80554 117.116 5.32341 117.649 5.84871C117.162 6.08888 116.72 6.38145 116.325 6.72677C115.807 6.20147 115.294 5.68743 114.784 5.18467C114.274 4.6819 113.768 4.18275 113.265 3.68742V3.68742ZM113.014 10.5091C112.207 9.69862 111.393 8.89561 110.571 8.10016C110.708 7.6498 110.868 7.22199 111.051 6.81682L114.521 10.2389C114.491 10.449 114.468 10.6592 114.453 10.8693C114.437 11.0794 114.422 11.2895 114.407 11.4997V11.8599C114.178 11.6347 113.95 11.4095 113.722 11.1844C113.494 10.9593 113.258 10.7341 113.014 10.5089L113.014 10.5091ZM112.147 4.94822C112.284 4.75313 112.432 4.56548 112.592 4.38539C112.752 4.20529 112.915 4.02519 113.083 3.84509L116.165 6.88444C115.815 7.22965 115.518 7.61239 115.274 8.03265L112.147 4.94822ZM111.256 6.41166C111.363 6.20147 111.473 5.99894 111.587 5.80374C111.701 5.60865 111.819 5.41357 111.941 5.21848C112.474 5.72868 113.003 6.24283 113.528 6.76058C114.053 7.27834 114.582 7.80004 115.114 8.32523C114.901 8.77559 114.742 9.24826 114.635 9.74359L111.256 6.41166H111.256ZM115.023 20.6628C114.262 20.2276 113.604 19.7285 113.048 19.1656C112.493 18.6028 112.017 17.9837 111.621 17.3082L115.023 20.6627V20.6628Z" fill="#FF703E"/>
</svg>

<svg width="235" height="35" viewBox="0 0 235 35" id="icons--logo" fill="none"
    xmlns="http://www.w3.org/2000/svg">
    <path d="M5.22828 8.20178C6.00455 7.81161 6.86448 7.50382 7.80819 7.27875C8.75179 7.05368 9.79447 6.9411 10.9361 6.9411H17.6485C17.7399 6.9411 17.7854 6.97862 17.7854 7.05368V11.1061C17.7854 11.1963 17.7398 11.2411 17.6485 11.2411H10.5709C9.80979 11.2411 9.13249 11.3163 8.53886 11.4663L5.22828 8.20178V8.20178ZM0 17.1172C0.0304016 16.6069 0.0761184 16.1191 0.136922 15.6538C0.943594 16.4342 1.73129 17.2071 2.49991 17.9726C3.26852 18.7381 4.03336 19.496 4.79443 20.2465C5.09879 20.9669 5.51367 21.5748 6.03884 22.0701C6.5639 22.5656 7.16884 22.9633 7.85391 23.2634C8.35622 23.7437 8.83945 24.2164 9.3037 24.6818C9.76796 25.1471 10.2207 25.5972 10.6621 26.0325L12.7169 28.0588H11.0959C10.7764 27.7586 10.4452 27.4359 10.1027 27.0907C9.7603 26.7456 9.39879 26.3854 9.0182 26.01C7.73962 24.7643 6.33177 23.3834 4.79443 21.8675C3.2572 20.3516 1.65895 18.7682 0 17.1172H0ZM0 18.0177C1.58294 19.5786 3.10508 21.0757 4.56619 22.5092C6.02741 23.9426 7.35914 25.2596 8.5616 26.4603C8.85088 26.7456 9.12849 27.0156 9.39491 27.2708C9.66132 27.526 9.92385 27.7811 10.1826 28.0362C9.87825 28.0212 9.58897 27.9987 9.31502 27.9687C9.04094 27.9386 8.77464 27.9011 8.51589 27.8561C8.27233 27.631 8.025 27.3908 7.77391 27.1357C7.52281 26.8806 7.26028 26.618 6.98621 26.3478C6.0121 25.3873 4.95044 24.3403 3.80135 23.2072C2.65226 22.0741 1.44591 20.892 0.182638 19.6613C0.136922 19.3911 0.0988625 19.1172 0.0684608 18.8395C0.0380592 18.5618 0.0152008 18.2879 0 18.0178L0 18.0177ZM13.4476 23.8037L15.2512 25.5823C15.3729 25.7023 15.491 25.8149 15.6051 25.9199C15.7192 26.025 15.8297 26.1375 15.9361 26.2576L16.5754 26.888C16.6363 26.9481 16.6895 27.0042 16.7352 27.0569C16.7809 27.1094 16.8342 27.1581 16.895 27.2031C16.9407 27.2632 16.9902 27.3156 17.0433 27.3607C17.0967 27.4058 17.1461 27.4507 17.1918 27.4957L17.7397 28.036C17.7244 28.036 17.713 28.0397 17.7054 28.0473C17.6978 28.0548 17.6788 28.0586 17.6483 28.0586H15.8446L11.5295 23.8035H13.4474L13.4476 23.8037ZM8.94985 23.6011C9.49777 23.7361 10.0837 23.8037 10.7078 23.8037H10.9133C11.248 24.1188 11.5678 24.4266 11.8722 24.7267C12.1765 25.0269 12.481 25.3271 12.7854 25.6272C13.2268 26.0625 13.653 26.4865 14.064 26.8992C14.4748 27.312 14.8706 27.6985 15.2511 28.0587H13.4703L8.94974 23.601L8.94985 23.6011ZM3.78992 9.1247C4.23131 8.77949 4.70311 8.47925 5.20542 8.22421L8.516 11.4887C7.92237 11.6389 7.38211 11.8715 6.895 12.1867C6.84928 12.1717 6.81888 12.1416 6.80357 12.0967L3.78992 9.12481V9.1247ZM1.57528 23.3759C1.34693 23.0007 1.14532 22.6142 0.970224 22.2164C0.795243 21.8187 0.646892 21.4097 0.525057 20.9894C1.621 22.0701 2.66734 23.1057 3.66443 24.0963C4.66139 25.0869 5.59356 26.0099 6.46115 26.8655C6.58287 26.9855 6.70471 27.1018 6.82643 27.2144C6.94815 27.3269 7.06998 27.4433 7.1917 27.5633C6.75031 27.4433 6.33177 27.3006 5.93598 27.1355C5.5403 26.9704 5.16736 26.7829 4.81729 26.5727L1.57528 23.3758V23.3759ZM0.251099 15.0233C0.296816 14.7831 0.350076 14.5468 0.410879 14.3142C0.471797 14.0816 0.540258 13.8527 0.616376 13.6275C1.25572 14.2579 1.87976 14.877 2.48859 15.4849C3.09742 16.0927 3.70626 16.6969 4.31509 17.2973C4.31509 17.6274 4.32275 17.9465 4.33795 18.254C4.35315 18.5617 4.39887 18.8732 4.47487 19.1883L0.251099 15.0233V15.0233ZM2.55717 10.273C2.72449 10.0779 2.90336 9.894 3.09365 9.72146C3.28383 9.5488 3.4779 9.37997 3.67586 9.21497C4.17817 9.7103 4.68414 10.2055 5.19411 10.7008C5.70396 11.1963 6.21016 11.6915 6.71248 12.1868L6.78105 12.2544C6.33954 12.5546 5.95906 12.9073 5.6395 13.3126C5.42635 13.1024 5.21708 12.8961 5.01158 12.6934C4.80609 12.4908 4.59682 12.2844 4.38378 12.0743C3.79015 11.459 3.18131 10.8586 2.55728 10.2732L2.55717 10.273ZM0.77627 13.1998C0.958909 12.7494 1.16441 12.3216 1.39276 11.9164C1.45368 11.9765 1.51071 12.0326 1.56397 12.0853C1.61734 12.1378 1.67426 12.2015 1.73518 12.2766C2.22229 12.757 2.71317 13.2372 3.20783 13.7175C3.7026 14.1979 4.19337 14.6781 4.68048 15.1584C4.51304 15.6836 4.40652 16.209 4.36092 16.7343L0.776385 13.1998H0.77627ZM1.55254 11.6238C1.8113 11.2035 2.10046 10.8133 2.42013 10.4531L4.22389 12.2317C4.43693 12.4417 4.65008 12.6519 4.86312 12.862C5.07627 13.0722 5.28931 13.2823 5.50247 13.4925C5.2284 13.8677 4.99261 14.3105 4.79454 14.8208C4.32275 14.3554 3.85472 13.8939 3.39047 13.4361C2.92621 12.9783 2.4583 12.5094 1.98639 12.029C1.91027 11.954 1.83804 11.8865 1.76947 11.8264C1.70089 11.7663 1.62866 11.6989 1.55254 11.6238V11.6238ZM15.959 23.8037L17.7855 25.6048V27.631C17.7246 27.5709 17.6677 27.5109 17.6143 27.4509C17.5611 27.3908 17.4965 27.3308 17.4203 27.2708C17.3747 27.2258 17.3289 27.177 17.2833 27.1245C17.2376 27.072 17.1844 27.0233 17.1236 26.9782C17.0778 26.9181 17.0283 26.8657 16.9752 26.8206C16.9218 26.7755 16.8649 26.723 16.804 26.6631L13.9044 23.8038H15.9591L15.959 23.8037ZM17.7855 25.2671C17.542 25.027 17.2946 24.7868 17.0435 24.5468C16.7924 24.3066 16.5375 24.0589 16.2788 23.8038H17.6486C17.74 23.8038 17.7855 23.8413 17.7855 23.9163V25.2671V25.2671ZM20.6167 21.9801C21.3319 22.7455 22.0398 23.4809 22.74 24.1864C23.4402 24.8917 24.1403 25.5972 24.8405 26.3027V27.6985C24.2012 27.053 23.5164 26.3853 22.7857 25.6947C22.0551 25.0043 21.332 24.2764 20.6168 23.5109V21.9801H20.6167ZM20.6167 19.5936C21.3319 20.299 22.0398 20.9933 22.74 21.6761C23.4402 22.3591 24.1403 23.0532 24.8405 23.7587V25.4023C24.1403 24.6969 23.4402 23.9952 22.74 23.2972C22.0398 22.5993 21.332 21.8676 20.6167 21.1022V19.5938V19.5936ZM33.5848 15.3835C33.8435 15.3835 34.0719 15.3273 34.2697 15.2147C34.4676 15.1022 34.6731 14.9482 34.8862 14.7532C35.1298 14.513 35.2933 14.1903 35.3771 13.785C35.4609 13.3799 35.4495 12.9896 35.3428 12.6144C35.2363 12.2392 35.0385 11.9127 34.7492 11.635C34.46 11.3573 34.0719 11.2186 33.5849 11.2186H28.1967C28.3794 11.5337 28.5582 11.819 28.7332 12.0741C28.9083 12.3293 29.0642 12.5469 29.2013 12.727H26.2562L20.6169 7.03103V6.91844H33.3338C34.2927 6.91844 35.2022 7.12863 36.0622 7.5489C36.9222 7.96916 37.6717 8.56198 38.3111 9.32745L38.4709 9.46247C38.8362 9.92781 39.1292 10.4568 39.3499 11.0497C39.5706 11.6426 39.7076 12.2617 39.7609 12.9071C39.8141 13.5525 39.7837 14.2054 39.6695 14.8657C39.5554 15.5262 39.3423 16.1454 39.0302 16.7232C38.7182 17.301 38.3034 17.8189 37.7859 18.2766C37.2684 18.7344 36.6367 19.0908 35.8909 19.346C35.5713 19.4061 35.2554 19.4623 34.9434 19.5148C34.6315 19.5675 34.3003 19.5937 33.9503 19.5937C33.935 19.6087 33.9198 19.6312 33.9046 19.6613C33.8741 19.7364 33.8894 19.8039 33.9503 19.864L34.795 20.967L29.0872 15.3836H33.585L33.5848 15.3835ZM24.4523 12.7269H24.3381C24.2012 12.5017 23.9996 12.1829 23.7332 11.77C23.4668 11.3573 23.1662 10.8995 22.8313 10.3968C22.4964 9.894 22.1425 9.37242 21.7695 8.83212C21.3967 8.29183 21.0504 7.7814 20.7307 7.30118L26.1416 12.727H24.4522L24.4523 12.7269ZM26.3929 15.3835C27.5496 16.4942 28.7102 17.6161 29.8746 18.7494C31.039 19.8825 32.1731 20.9894 33.2764 22.07C34.38 23.1507 35.4455 24.1975 36.4728 25.2107C37.5002 26.2238 38.4629 27.173 39.361 28.0587H39.2241H37.1692C36.0733 27.038 34.947 25.9425 33.7903 24.7716C32.6335 23.601 31.4006 22.3777 30.0916 21.1019C29.9089 20.8466 29.7415 20.614 29.5893 20.4039C29.437 20.1937 29.2696 19.9611 29.0868 19.7059H28.927H28.5618C27.8464 18.9405 27.1348 18.205 26.4271 17.4996C25.7193 16.7942 24.9773 16.0887 24.2011 15.3833H26.3929V15.3835ZM20.6165 26.9105C20.7383 27.1057 20.8905 27.3007 21.0731 27.4958C21.2558 27.6909 21.4384 27.8786 21.6211 28.0587H20.7306C20.6545 28.0587 20.6165 28.0211 20.6165 27.9462V26.9105ZM20.6165 24.5241C21.1949 25.1544 21.7923 25.7585 22.4088 26.3365C23.0252 26.9143 23.6226 27.4884 24.201 28.0587H22.7855C22.4659 27.6685 22.1233 27.3007 21.758 26.9555C21.3927 26.6103 21.0122 26.2202 20.6165 25.7849V24.5241ZM21.507 15.5186C22.2223 16.2239 22.9302 16.922 23.6303 17.6124C24.3306 18.3029 25.0306 19.0008 25.7309 19.7062H24.9775H24.8405V20.5844C24.1403 19.9539 23.4402 19.2786 22.74 18.5581C22.0398 17.8377 21.332 17.1246 20.6167 16.4193V15.5189V15.3837H21.3928C21.4081 15.3837 21.4385 15.4063 21.4842 15.4513C21.4994 15.4814 21.5071 15.5039 21.5071 15.519L21.507 15.5186ZM28.927 15.3835L35.0002 21.2146L39.3609 27.9462C37.5649 26.1601 35.5785 24.1976 33.4019 22.0587C31.2253 19.92 28.9726 17.6949 26.6438 15.3834H28.9269L28.927 15.3835ZM20.6165 17.0496C22.032 18.4755 23.44 19.8639 24.8403 21.2146V23.0157C24.14 22.3103 23.44 21.6123 22.7397 20.9219C22.0396 20.2314 21.3318 19.5335 20.6164 18.828V17.0495L20.6165 17.0496ZM30.7764 22.1152C31.8723 23.1959 32.9225 24.2352 33.9271 25.2333C34.9316 26.2314 35.8828 27.1732 36.781 28.0588H34.749H34.6349C34.5588 27.9238 34.4065 27.6836 34.1782 27.3384C33.9499 26.9932 33.6646 26.5579 33.322 26.0326C32.9796 25.5074 32.5877 24.9145 32.1463 24.2541C31.7048 23.5936 31.2482 22.8808 30.7764 22.1153V22.1152ZM24.0869 15.5187C24.8021 16.224 25.5024 16.9221 26.1874 17.6125C26.8723 18.3031 27.5419 19.0009 28.1965 19.7063H26.1416C25.4264 18.9409 24.7186 18.2055 24.0183 17.5C23.3182 16.7946 22.6104 16.0891 21.895 15.3837H23.9497L24.0868 15.5189L24.0869 15.5187ZM56.0276 19.4136C55.3426 18.7382 54.6578 18.0629 53.9729 17.3873C53.2878 16.7119 52.5954 16.0291 51.8951 15.3386C52.0626 15.3536 52.2338 15.3612 52.4088 15.3612C52.5839 15.3612 52.7551 15.3612 52.9224 15.3612C53.9574 15.3912 54.9011 15.3198 55.7535 15.1473C56.6059 14.9746 57.3365 14.6669 57.9453 14.2242C58.5541 13.7814 59.026 13.1811 59.3608 12.4232C59.6957 11.6652 59.8631 10.7159 59.8631 9.57517V7.05368C59.8631 6.97851 59.9013 6.9411 59.9773 6.9411H64.064C64.1403 6.9411 64.1782 6.98618 64.1782 7.07622V9.37264C64.1782 11.1287 63.9498 12.6071 63.4933 13.8078C63.0365 15.0085 62.4315 15.9992 61.6782 16.7797C60.9248 17.5601 60.0571 18.1529 59.0754 18.5582C58.0936 18.9635 57.0777 19.2486 56.0274 19.4137L56.0276 19.4136ZM41.7581 10.0029C41.7428 9.89795 41.7353 9.7928 41.7353 9.68776C41.7353 9.58272 41.7353 9.47013 41.7353 9.3501V7.8417C42.5267 8.60717 43.3258 9.39135 44.1326 10.1944C44.9392 10.9974 45.7611 11.8041 46.5983 12.6146C46.8266 13.1549 47.1233 13.5939 47.4887 13.9316C47.854 14.2693 48.2727 14.5432 48.7445 14.7534L49.0869 15.091C50.1067 16.0967 51.1189 17.0911 52.1235 18.074C53.128 19.0571 54.1174 20.029 55.0915 20.9895V23.1734C53.7674 21.8676 52.4088 20.5243 51.0161 19.1435C49.6235 17.7626 48.2117 16.3667 46.7809 14.9559C45.9285 14.1154 45.0838 13.2823 44.2467 12.457C43.4095 11.6314 42.58 10.8134 41.7581 10.0029V10.0029ZM41.7581 10.3405C42.5648 11.1361 43.3677 11.9315 44.1667 12.727C44.9659 13.5225 45.7764 14.3255 46.5983 15.136C48.0747 16.5769 49.5245 17.999 50.9477 19.4023C52.3708 20.8057 53.7522 22.1677 55.0917 23.4886V25.5149L50.8222 21.3049V19.6388C50.8222 19.5637 50.7841 19.5262 50.7081 19.5262C50.358 19.4812 50.0116 19.4286 49.6692 19.3686C49.3268 19.3086 48.9805 19.2336 48.6304 19.1436L42.1007 12.7046C42.0244 12.3444 41.9561 11.9692 41.8952 11.579C41.8343 11.1887 41.7887 10.776 41.7582 10.3406L41.7581 10.3405ZM49.0413 14.8657C49.4675 15.0159 49.9165 15.1247 50.3882 15.1921C50.8601 15.2598 51.3471 15.3084 51.8494 15.3385C52.5497 16.0289 53.246 16.7118 53.9386 17.3872C54.6312 18.0628 55.3198 18.7381 56.0049 19.4135C55.8678 19.4436 55.7308 19.4623 55.5939 19.4699C55.4569 19.4773 55.3274 19.4961 55.2057 19.5261C55.1296 19.5261 55.0917 19.5637 55.0917 19.6387V20.8319L49.0414 14.8657H49.0413ZM41.7353 7.05357C41.7353 6.9784 41.7809 6.94098 41.8722 6.94098H43.3334C43.7748 7.37635 44.2276 7.81904 44.6919 8.26929C45.1562 8.71953 45.6241 9.17733 46.096 9.64257V9.68765C46.096 10.2279 46.1303 10.7158 46.1986 11.1511C46.2672 11.5863 46.3623 11.9841 46.4841 12.3443L41.7352 7.66137V7.05357H41.7353ZM50.8221 21.7774C51.583 22.5128 52.3137 23.2296 53.0138 23.9275C53.714 24.6254 54.4065 25.3046 55.0915 25.965V27.8561C54.437 27.2107 53.7559 26.5429 53.0481 25.8524C52.3403 25.162 51.5983 24.434 50.8221 23.6686V21.7774V21.7774ZM42.2603 13.3348C42.5647 13.6349 42.8767 13.9389 43.1964 14.2466C43.5159 14.5541 43.8281 14.8582 44.1324 15.1583C44.7869 15.8037 45.4338 16.4417 46.073 17.0719C46.7122 17.7023 47.3516 18.3327 47.9908 18.9631C47.3516 18.7679 46.739 18.5128 46.153 18.1977C45.5669 17.8826 45.0267 17.496 44.5319 17.0382C44.0372 16.5804 43.596 16.0477 43.2078 15.4397C42.8197 14.8318 42.5038 14.1303 42.2603 13.3348V13.3348ZM50.8221 24.2538C51.5222 24.9293 52.1918 25.5859 52.8312 26.2238C53.4704 26.8617 54.0869 27.4733 54.6806 28.0587H52.9225C52.5878 27.7286 52.2452 27.3945 51.8951 27.0569C51.5451 26.7191 51.1873 26.37 50.8221 26.0099V24.2538ZM45.9591 6.94087C46.0504 6.94087 46.096 6.9784 46.096 7.05346V9.59749C45.6241 9.14713 45.1637 8.7006 44.7146 8.25791C44.2657 7.8151 43.8204 7.37613 43.3791 6.94087H45.9591ZM50.8221 26.7304C51.0504 26.9705 51.2787 27.1994 51.507 27.4172C51.7354 27.6348 51.9561 27.8487 52.1692 28.0588H50.9591C50.8678 28.0588 50.8222 28.0063 50.8222 27.9012V26.7305L50.8221 26.7304ZM71.3474 11.1961C70.6168 10.4757 69.8938 9.76259 69.1785 9.0573C68.4631 8.3519 67.7553 7.66137 67.055 6.98595C67.0704 6.95597 67.1084 6.94087 67.1692 6.94087H79.8404C80.845 6.94087 81.7849 7.16977 82.6601 7.62756C83.5354 8.08547 84.2773 8.69711 84.8862 9.46247C85.4341 10.153 85.8183 10.9821 86.0392 11.9503C86.2599 12.9184 86.2788 13.8826 86.0962 14.8433C85.9135 15.8039 85.5179 16.6895 84.909 17.5C84.3002 18.3105 83.4402 18.9034 82.3291 19.2786C81.5071 19.4587 80.6853 19.5713 79.8633 19.6163C79.1631 18.9071 78.4554 18.1979 77.74 17.4888C77.0246 16.7797 76.3016 16.0629 75.571 15.3388H79.9775C80.5406 15.3388 80.982 15.1587 81.3015 14.8022C81.5756 14.5169 81.7506 14.1717 81.8267 13.759C81.9028 13.35 81.8837 12.9523 81.7696 12.5733C81.6555 12.1944 81.45 11.868 81.1531 11.5977C80.8562 11.3313 80.4643 11.1963 79.9773 11.1963H71.3472L71.3474 11.1961ZM75.5254 15.3385L79.8178 19.6161C79.7113 19.6161 79.6123 19.6199 79.5209 19.6274C79.4295 19.6349 79.3307 19.6387 79.224 19.6387H77.5116C76.7963 18.9333 76.0809 18.224 75.3655 17.5112C74.6502 16.7983 73.9272 16.0816 73.1966 15.3612L75.5254 15.3386V15.3385ZM73.014 15.3385C73.7445 16.0626 74.4676 16.7831 75.1829 17.4998C75.8983 18.2164 76.6136 18.9294 77.329 19.6386H75.1372L70.8221 15.361L73.0139 15.3384L73.014 15.3385ZM68.4249 15.3385H70.4798L74.7949 19.6386H72.7629L68.4249 15.3385ZM67.0094 15.4735C67.0094 15.3834 67.055 15.3385 67.1464 15.3385H67.9682C68.6988 16.0626 69.4219 16.7831 70.1373 17.4998C70.8525 18.2164 71.568 18.9294 72.2833 19.6386H71.4385C71.3472 19.6386 71.3016 19.6761 71.3016 19.751V20.5391L67.0093 16.2877V15.4734L67.0094 15.4735ZM67.0094 16.8995L71.3017 21.1433V22.8806L67.0094 18.6366V16.8995ZM67.0094 7.03092L67.0323 7.00838L71.3017 11.1959H68.9729L67.0094 9.28226V7.076V7.03092V7.03092ZM67.0094 19.3909L71.3017 23.6235V25.2219C70.6167 24.5465 69.9166 23.8598 69.2012 23.1619C68.4859 22.4639 67.7552 21.7398 67.0094 20.9893V19.3909ZM67.0094 21.8898C67.7704 22.6253 68.5049 23.3458 69.2126 24.0511C69.9205 24.7565 70.6167 25.4395 71.3017 26.0999V27.5859L67.0094 23.3532V21.8898ZM67.0094 24.3664L70.7538 28.0587H69.4068L67.0096 25.6947V24.3665L67.0094 24.3664ZM67.1464 11.1959C67.0549 11.1959 67.0094 11.1584 67.0094 11.0834V9.46236L68.7902 11.1959H67.1464V11.1959ZM67.0094 26.8429L68.2423 28.0587H67.1692C67.0627 28.0587 67.0094 28.0061 67.0094 27.9011V26.8429ZM96.0507 27.4283C96.1724 27.5332 96.2828 27.6384 96.3818 27.7434C96.4807 27.8485 96.591 27.9535 96.7128 28.0586H96.2103C96.1039 28.0586 96.0506 28.006 96.0506 27.901V27.4282L96.0507 27.4283ZM97.4434 28.0587L96.0507 26.6854V24.9293L99.2242 28.0587H97.4434ZM96.0507 22.4527L100.411 26.7528V27.901C100.411 28.006 100.358 28.0586 100.252 28.0586H99.8407C99.2623 27.4883 98.6572 26.8954 98.0256 26.28C97.3939 25.6646 96.7356 25.0192 96.0507 24.3439V22.4526V22.4527ZM96.0507 17.2972V15.0008C96.0964 15.0457 96.1421 15.0908 96.1877 15.1358C96.2333 15.1809 96.279 15.2184 96.3246 15.2483L100.411 19.3008V21.5972L96.0507 17.2972V17.2972ZM96.0507 19.6386V17.4773L100.411 21.7773V23.9386L96.0507 19.6386ZM96.0507 19.9762C96.8117 20.7116 97.5538 21.4397 98.2767 22.1601C98.9997 22.8804 99.7113 23.5784 100.411 24.2538V26.2801C99.7264 25.6047 99.0225 24.9143 98.2995 24.2088C97.5766 23.5035 96.8268 22.7679 96.0506 22.0025V19.9762H96.0507ZM87.4432 8.98957L89.6579 11.1734H87.6031C87.4966 11.1734 87.4432 11.1208 87.4432 11.0158V8.98957V8.98957ZM87.4432 8.80947V7.09843C87.4738 6.9935 87.527 6.94087 87.6031 6.94087H87.8771L92.1694 11.1735H89.8405L87.4432 8.80958V8.80947ZM87.9228 6.94076H108.699C108.806 6.97085 108.859 7.02337 108.859 7.09831V11.0157C108.859 11.1207 108.806 11.1733 108.699 11.1733H100.549C100.457 11.1733 100.411 11.2108 100.411 11.2858V19.2556L96.0508 14.9556V11.2858C96.0508 11.2107 96.0127 11.1733 95.9367 11.1733H92.2151L87.9229 6.94064L87.9228 6.94076ZM116.165 7.86379C116.896 7.53368 117.691 7.30095 118.551 7.16582C119.411 7.03081 120.237 6.96318 121.028 6.96318H125.229C126.827 6.96318 128.292 7.20335 129.624 7.68358C130.956 8.16391 132.109 8.85805 133.083 9.7662C134.057 10.6741 134.814 11.7811 135.355 13.0869C135.895 14.3926 136.165 15.8635 136.165 17.4996C136.165 18.8204 135.952 20.1261 135.526 21.4169C135.1 22.7077 134.407 23.8709 133.448 24.9066L130.366 21.8671C130.853 21.342 131.23 20.7152 131.496 19.9873C131.762 19.2593 131.88 18.4301 131.85 17.4995C131.835 16.6289 131.702 15.8146 131.45 15.0567C131.199 14.2987 130.815 13.6383 130.297 13.0755C129.78 12.5126 129.133 12.0698 128.357 11.7473C127.581 11.4246 126.66 11.2631 125.594 11.2631H120.686C120.32 11.2631 119.978 11.2857 119.658 11.3307L116.165 7.86356L116.165 7.86379ZM110.092 17.4997C110.092 17.3797 110.092 17.2708 110.092 17.1732C110.092 17.0756 110.1 16.9669 110.115 16.8468C110.328 17.057 110.541 17.2671 110.754 17.4773C110.967 17.6874 111.18 17.8975 111.393 18.1076L121.508 28.0812H120.891C120.724 28.0812 120.568 28.0812 120.423 28.0812C120.278 28.0812 120.13 28.0737 119.978 28.0587C118.593 26.6928 117.105 25.2257 115.514 23.6572C113.924 22.0888 112.299 20.4865 110.64 18.8506L110.115 18.3328C110.1 18.1828 110.092 18.0401 110.092 17.905C110.092 17.77 110.092 17.6348 110.092 17.4998V17.4997ZM110.686 21.2144C110.579 20.9291 110.492 20.6441 110.423 20.3589C110.354 20.0736 110.297 19.781 110.252 19.4808C111.774 20.9667 113.262 22.4263 114.715 23.8596C116.169 25.2931 117.543 26.6476 118.836 27.9234C118.76 27.9084 118.684 27.8972 118.608 27.8896C118.532 27.8821 118.456 27.8708 118.38 27.8558C118.151 27.8107 117.931 27.7657 117.718 27.7208C117.504 27.6757 117.291 27.6157 117.078 27.5407C116.013 26.475 114.947 25.4206 113.882 24.3775C112.816 23.3344 111.751 22.28 110.686 21.2144V21.2144ZM122.832 23.826H124.75C125.435 24.5164 126.104 25.1805 126.759 25.8184C127.413 26.4564 128.045 27.0754 128.654 27.6758C128.532 27.7059 128.406 27.7359 128.277 27.766C128.148 27.796 128.015 27.826 127.878 27.856L127.056 27.991L122.832 23.8261L122.832 23.826ZM117.786 11.8036C117.238 11.2784 116.698 10.753 116.165 10.2277C115.632 9.70241 115.107 9.18454 114.59 8.67434C115.077 8.34412 115.587 8.07398 116.119 7.86379C116.698 8.43417 117.276 9.00445 117.854 9.57483C118.433 10.1451 119.019 10.7305 119.613 11.3308C119.262 11.3608 118.935 11.4172 118.631 11.4997C118.326 11.5823 118.045 11.6835 117.786 11.8035L117.786 11.8036ZM122.238 23.826L126.508 28.036C126.294 28.0661 126.085 28.0811 125.88 28.0811C125.674 28.0811 125.465 28.0811 125.252 28.0811H124.772L120.457 23.826H122.238H122.238ZM122.398 28.0811C121.591 27.2856 120.743 26.4525 119.852 25.5821C118.962 24.7115 118.037 23.8036 117.078 22.858C117.824 23.3083 118.669 23.601 119.613 23.7361L124.019 28.0812H122.398V28.0811ZM125.457 23.826C126.066 23.826 126.614 23.7734 127.101 23.6684L130.503 27.0229C130.275 27.143 130.035 27.2481 129.784 27.338C129.533 27.4282 129.278 27.5106 129.019 27.5858L125.206 23.826H125.458H125.457ZM129.042 22.9255C129.544 22.6254 129.978 22.2801 130.343 21.8898L133.425 24.9291C133.075 25.3194 132.664 25.6872 132.193 26.0323L129.042 22.9255H129.042ZM110.183 16.0363C110.229 15.601 110.313 15.1507 110.434 14.6854L114.476 18.6703C114.536 19.1507 114.639 19.5934 114.784 19.9987C114.928 20.4039 115.107 20.7791 115.32 21.1243C114.179 19.9837 113.014 18.8353 111.827 17.6797L110.183 16.0362L110.183 16.0363ZM127.352 23.6008C127.915 23.4658 128.441 23.2632 128.928 22.9929L132.101 26.0998C131.721 26.3999 131.264 26.6776 130.731 26.9328C130.168 26.3775 129.609 25.8222 129.053 25.2668C128.498 24.7114 127.931 24.1561 127.352 23.6007L127.352 23.6008ZM113.265 9.68742C113.615 9.37231 114.019 9.05708 114.475 8.74185C115.008 9.26715 115.537 9.78502 116.062 10.2953C116.587 10.8055 117.116 11.3234 117.649 11.8487C117.162 12.0889 116.72 12.3815 116.325 12.7268C115.807 12.2015 115.294 11.6874 114.784 11.1847C114.274 10.6819 113.768 10.1827 113.265 9.68742V9.68742ZM113.014 16.5091C112.207 15.6986 111.393 14.8956 110.571 14.1002C110.708 13.6498 110.868 13.222 111.051 12.8168L114.521 16.2389C114.491 16.449 114.468 16.6592 114.453 16.8693C114.437 17.0794 114.422 17.2895 114.407 17.4997V17.8599C114.178 17.6347 113.95 17.4095 113.722 17.1844C113.494 16.9593 113.258 16.7341 113.014 16.5089L113.014 16.5091ZM112.147 10.9482C112.284 10.7531 112.432 10.5655 112.592 10.3854C112.752 10.2053 112.915 10.0252 113.083 9.84509L116.165 12.8844C115.815 13.2296 115.518 13.6124 115.274 14.0327L112.147 10.9482ZM111.256 12.4117C111.363 12.2015 111.473 11.9989 111.587 11.8037C111.701 11.6087 111.819 11.4136 111.941 11.2185C112.474 11.7287 113.003 12.2428 113.528 12.7606C114.053 13.2783 114.582 13.8 115.114 14.3252C114.901 14.7756 114.742 15.2483 114.635 15.7436L111.256 12.4117H111.256ZM115.023 26.6628C114.262 26.2276 113.604 25.7285 113.048 25.1656C112.493 24.6028 112.017 23.9837 111.621 23.3082L115.023 26.6627V26.6628Z" fill="#FF703E"/>
    <path d="M170.37 24.7821C170.37 24.8703 170.347 24.9418 170.303 25.0024C170.258 25.0575 170.191 25.1125 170.091 25.1566C169.99 25.1952 169.856 25.2283 169.677 25.2503C169.504 25.2723 169.286 25.2834 169.023 25.2834C168.744 25.2834 168.521 25.2723 168.348 25.2503C168.169 25.2283 168.035 25.1952 167.934 25.1566C167.834 25.1125 167.767 25.0574 167.722 25.0024C167.677 24.9418 167.655 24.8703 167.655 24.7821V18.409H160.181V24.7821C160.181 24.8703 160.158 24.9418 160.114 25.0024C160.069 25.0575 160.002 25.1125 159.901 25.1566C159.801 25.1952 159.667 25.2283 159.488 25.2503C159.315 25.2723 159.092 25.2834 158.818 25.2834C158.55 25.2834 158.332 25.2723 158.159 25.2503C157.98 25.2283 157.84 25.1952 157.74 25.1566C157.633 25.1125 157.561 25.0574 157.522 25.0024C157.483 24.9418 157.466 24.8703 157.466 24.7821V10.2512C157.466 10.163 157.483 10.0915 157.522 10.0308C157.561 9.97571 157.633 9.92071 157.74 9.87113C157.84 9.82154 157.98 9.78852 158.159 9.77195C158.332 9.75538 158.55 9.74986 158.818 9.74986C159.092 9.74986 159.315 9.75538 159.488 9.77195C159.667 9.78852 159.801 9.82154 159.901 9.87113C160.002 9.92071 160.069 9.97571 160.114 10.0308C160.158 10.0915 160.181 10.163 160.181 10.2512V16.1616H167.655V10.2512C167.655 10.163 167.677 10.0915 167.722 10.0308C167.767 9.97571 167.834 9.92071 167.934 9.87113C168.035 9.82154 168.169 9.78852 168.348 9.77195C168.521 9.75538 168.744 9.74986 169.023 9.74986C169.286 9.74986 169.504 9.75538 169.677 9.77195C169.856 9.78852 169.99 9.82154 170.091 9.87113C170.191 9.92071 170.258 9.97571 170.303 10.0308C170.347 10.0915 170.37 10.163 170.37 10.2512V24.7821ZM186.48 24.7986C186.48 24.9253 186.435 25.0245 186.351 25.0907C186.262 25.1567 186.145 25.2008 185.988 25.2338C185.838 25.2669 185.614 25.2834 185.318 25.2834C185.039 25.2834 184.81 25.2669 184.642 25.2338C184.474 25.2008 184.352 25.1566 184.273 25.0907C184.195 25.0245 184.156 24.9308 184.156 24.7986V23.3444C183.514 24.022 182.799 24.5507 182.006 24.9253C181.212 25.2943 180.374 25.4816 179.492 25.4816C178.715 25.4816 178.012 25.3823 177.386 25.1841C176.76 24.9858 176.224 24.6938 175.783 24.3192C175.341 23.9447 174.995 23.4764 174.749 22.9312C174.504 22.3804 174.381 21.7579 174.381 21.0583C174.381 20.2376 174.548 19.527 174.889 18.9266C175.224 18.3206 175.71 17.8194 176.347 17.4228C176.978 17.0262 177.755 16.7233 178.671 16.5249C179.587 16.3267 180.62 16.2275 181.765 16.2275H183.799V15.0928C183.799 14.5364 183.737 14.0407 183.62 13.6055C183.497 13.1759 183.307 12.8178 183.039 12.5313C182.771 12.2449 182.425 12.0302 182 11.8868C181.575 11.7381 181.05 11.6665 180.43 11.6665C179.766 11.6665 179.168 11.7437 178.643 11.9034C178.112 12.0631 177.649 12.2338 177.252 12.4266C176.855 12.6194 176.52 12.7901 176.252 12.9499C175.99 13.1096 175.788 13.1867 175.66 13.1867C175.571 13.1867 175.492 13.1647 175.431 13.1207C175.364 13.082 175.308 13.016 175.258 12.9278C175.207 12.8451 175.174 12.735 175.152 12.6029C175.129 12.4652 175.118 12.3219 175.118 12.1567C175.118 11.8922 175.135 11.6774 175.174 11.5232C175.213 11.3691 175.308 11.2203 175.453 11.0826C175.599 10.9448 175.856 10.7796 176.213 10.5867C176.571 10.3995 176.99 10.2232 177.459 10.0635C177.922 9.90922 178.436 9.77702 178.995 9.67243C179.548 9.56773 180.112 9.51814 180.676 9.51814C181.732 9.51814 182.631 9.63378 183.374 9.87068C184.117 10.1076 184.715 10.4601 185.173 10.9173C185.631 11.3745 185.961 11.9418 186.167 12.6193C186.374 13.2968 186.48 14.09 186.48 14.9933V24.7982L186.48 24.7986ZM183.799 18.1446H181.492C180.754 18.1446 180.112 18.2052 179.564 18.3318C179.023 18.4529 178.57 18.6403 178.207 18.8827C177.85 19.125 177.587 19.4114 177.414 19.753C177.246 20.0945 177.162 20.4855 177.162 20.9262C177.162 21.6808 177.403 22.2812 177.889 22.7274C178.375 23.1737 179.05 23.3996 179.927 23.3996C180.631 23.3996 181.29 23.2233 181.894 22.8652C182.497 22.5127 183.134 21.9673 183.799 21.2348V18.1446ZM203.54 24.7821C203.54 24.8703 203.517 24.9418 203.473 25.0024C203.428 25.0575 203.361 25.1125 203.26 25.1566C203.165 25.1952 203.026 25.2283 202.853 25.2503C202.679 25.2723 202.462 25.2834 202.199 25.2834C201.925 25.2834 201.702 25.2723 201.529 25.2503C201.355 25.2283 201.216 25.1952 201.11 25.1566C201.009 25.1125 200.936 25.0574 200.892 25.0024C200.847 24.9418 200.825 24.8703 200.825 24.7821V12.0964H196.769C196.596 13.8039 196.384 15.3243 196.138 16.6573C195.892 17.9902 195.619 19.1526 195.311 20.144C195.004 21.1301 194.658 21.9673 194.278 22.6448C193.898 23.3224 193.479 23.8676 193.026 24.2808C192.568 24.6939 192.077 24.9912 191.546 25.1732C191.021 25.3549 190.451 25.4486 189.854 25.4486C189.753 25.4486 189.669 25.4321 189.597 25.399C189.53 25.366 189.468 25.3109 189.423 25.2227C189.384 25.1401 189.351 25.019 189.328 24.8593C189.306 24.705 189.295 24.5067 189.295 24.2588C189.295 23.9999 189.3 23.7906 189.317 23.6308C189.334 23.4711 189.362 23.3389 189.401 23.2453C189.44 23.1461 189.491 23.0856 189.546 23.0525C189.608 23.0194 189.68 23.003 189.77 23.003C190.133 23.003 190.474 22.9202 190.803 22.755C191.127 22.5843 191.434 22.3088 191.719 21.9288C192.004 21.5486 192.272 21.0473 192.524 20.4304C192.769 19.808 192.998 19.0479 193.211 18.1445C193.417 17.2412 193.613 16.1835 193.797 14.9717C193.982 13.7653 194.16 12.3718 194.322 10.8019C194.345 10.4769 194.423 10.2401 194.563 10.0803C194.697 9.92612 194.892 9.84892 195.143 9.84892H202.707C202.964 9.84892 203.171 9.92612 203.316 10.0858C203.467 10.2401 203.539 10.4769 203.539 10.8019V24.782L203.54 24.7821ZM222.219 17.3459C222.219 18.5301 222.063 19.6208 221.744 20.6178C221.432 21.6093 220.957 22.4686 220.331 23.1902C219.705 23.9118 218.918 24.4737 217.979 24.8757C217.035 25.2778 215.941 25.4817 214.7 25.4817C213.488 25.4817 212.432 25.3055 211.533 24.9474C210.634 24.5949 209.885 24.0771 209.288 23.3997C208.69 22.7221 208.243 21.8959 207.947 20.9318C207.651 19.9624 207.506 18.8662 207.506 17.6379C207.506 16.4536 207.662 15.3629 207.969 14.3713C208.282 13.3744 208.751 12.515 209.377 11.7935C210.003 11.072 210.785 10.5156 211.723 10.1134C212.661 9.71684 213.756 9.51848 215.008 9.51848C216.22 9.51848 217.276 9.69475 218.175 10.0528C219.074 10.4053 219.823 10.9231 220.421 11.6005C221.018 12.2781 221.471 13.0989 221.772 14.0684C222.068 15.0378 222.219 16.1285 222.219 17.3459ZM219.404 17.5166C219.404 16.7289 219.331 15.9853 219.18 15.2857C219.035 14.5861 218.789 13.9747 218.449 13.4459C218.114 12.9171 217.65 12.4986 217.069 12.1955C216.494 11.887 215.767 11.7327 214.902 11.7327C214.103 11.7327 213.416 11.8705 212.84 12.1514C212.265 12.4324 211.796 12.829 211.422 13.3412C211.047 13.8535 210.773 14.4593 210.595 15.1589C210.411 15.8584 210.321 16.6242 210.321 17.4505C210.321 18.2492 210.394 18.9982 210.544 19.6979C210.69 20.3974 210.935 21.0088 211.282 21.5322C211.628 22.0498 212.092 22.4685 212.667 22.7716C213.248 23.0799 213.974 23.2343 214.84 23.2343C215.628 23.2343 216.309 23.0966 216.89 22.8156C217.471 22.5347 217.946 22.1436 218.32 21.6369C218.694 21.1302 218.968 20.5242 219.141 19.8246C219.314 19.1251 219.404 18.3539 219.404 17.5167V17.5166ZM235 11.0387C235 11.2536 234.989 11.4353 234.961 11.5841C234.933 11.7327 234.894 11.8595 234.844 11.9531C234.799 12.0523 234.743 12.1238 234.682 12.1624C234.62 12.2065 234.548 12.2285 234.464 12.2285H228.934V24.782C228.934 24.8702 228.911 24.9417 228.867 25.0023C228.822 25.0574 228.755 25.1124 228.654 25.1565C228.554 25.1951 228.42 25.2281 228.241 25.2502C228.068 25.2722 227.844 25.2833 227.571 25.2833C227.302 25.2833 227.085 25.2722 226.911 25.2502C226.733 25.2281 226.593 25.1951 226.492 25.1565C226.386 25.1124 226.314 25.0573 226.275 25.0023C226.235 24.9417 226.219 24.8702 226.219 24.782V10.8019C226.219 10.4769 226.291 10.2401 226.442 10.0803C226.587 9.92612 226.788 9.84892 227.051 9.84892H234.458C234.547 9.84892 234.62 9.87101 234.681 9.9206C234.743 9.97019 234.793 10.0418 234.843 10.1465C234.894 10.2456 234.933 10.3723 234.961 10.5156C234.989 10.6587 235 10.835 235 11.0387H235Z" fill="#535353"/>
    <path fill-rule="evenodd" clip-rule="evenodd" d="M145.721 0V35H144.915V0H145.721Z" fill="#535353"/>
</svg>
    
