<svg width="32" height="36" viewBox="0 0 32 36" fill="none" xmlns="http://www.w3.org/2000/svg">
<g clip-path="url(#clip0)">
<path d="M30.064 4.20861C27.0621 4.20861 24.1503 3.82874 21.3285 2.76218C19.5124 2.07549 17.9214 1.05276 16.3454 -0.0137939C16.0902 -0.0137939 15.8501 -0.0137939 15.5949 -0.0137939C14.9195 0.439128 14.2591 0.921271 13.5687 1.33036C9.96641 3.52192 5.98892 4.23783 1.81632 4.20861C0.435452 4.20861 -0.0448479 4.67614 0.00018024 6.0203C0.0902365 8.76705 0.165283 11.5138 0.330387 14.2606C0.48048 16.9343 0.795677 19.5934 1.35102 22.2086C2.17654 26.1388 4.12776 29.3093 7.73001 31.3985C10.2366 32.8596 12.8182 34.1891 15.2647 35.7671C15.76 36.0885 16.3154 36.0593 16.8257 35.7378C19.2272 34.1599 21.8238 32.8888 24.2854 31.3985C25.6962 30.5511 26.972 29.543 28.0077 28.2573C29.8989 25.8904 30.6043 23.0852 31.0546 20.207C31.8051 15.5317 31.9401 10.8125 32.0002 6.09335C32.0152 4.58848 31.64 4.20861 30.064 4.20861ZM27.6925 22.5885C26.897 25.8612 24.8557 28.1258 21.8388 29.6745C19.8576 30.6973 17.9514 31.8515 15.9702 32.9619C13.5236 31.5593 11.0471 30.1567 8.60056 28.6956C6.03395 27.1761 4.8332 24.7654 4.1878 22.0187C3.42232 18.7752 3.19718 15.4878 3.00206 12.1859C2.912 10.681 2.88198 9.17614 2.83695 7.65666C2.83695 7.4229 2.76191 7.17452 2.94202 6.89692C7.62495 6.82387 12.0227 5.66965 16.0002 3.069C19.9476 5.66965 24.3454 6.82387 29.0433 6.89692C29.1034 6.98458 29.1634 7.02841 29.1634 7.05764C29.0734 12.2735 28.9383 17.4748 27.6925 22.5885Z" fill="#3676BB"/>
</g>
<defs>
<clipPath id="clip0">
<rect width="32" height="36" fill="white"/>
</clipPath>
</defs>
</svg>
